<svg width="72" height="72" viewBox="0 0 72 72" fill="none" xmlns="http://www.w3.org/2000/svg">
<path d="M55.125 0H16.875C7.55519 0 0 7.55519 0 16.875V55.125C0 64.4448 7.55519 72 16.875 72H55.125C64.4448 72 72 64.4448 72 55.125V16.875C72 7.55519 64.4448 0 55.125 0Z" fill="#F0DB4F"/>
<path d="M18.9314 60.1683L24.4411 56.8338C25.5042 58.7185 26.4712 60.3132 28.7907 60.3132C31.0139 60.3132 32.4157 59.4435 32.4157 56.0607V33.055H39.182V56.1563C39.182 63.1642 35.0741 66.3541 29.0806 66.3541C23.668 66.3541 20.5261 63.5509 18.9312 60.1677M42.8571 59.4433L48.3662 56.2536C49.8166 58.622 51.7016 60.3618 55.0361 60.3618C57.8398 60.3618 59.6275 58.9601 59.6275 57.0267C59.6275 54.707 57.7909 53.8852 54.6977 52.5324L53.0066 51.807C48.1249 49.7292 44.8866 47.1192 44.8866 41.6095C44.8866 36.5346 48.7532 32.668 54.7947 32.668C59.0962 32.668 62.1894 34.1665 64.4124 38.0812L59.1443 41.4643C57.9841 39.3862 56.7281 38.5647 54.7947 38.5647C52.8131 38.5647 51.5564 39.8213 51.5564 41.4643C51.5564 43.4941 52.8131 44.3159 55.7127 45.5728L57.4042 46.2976C63.1555 48.7628 66.3938 51.2755 66.3938 56.93C66.3938 63.0202 61.6092 66.3547 55.1812 66.3547C48.8983 66.3547 44.8385 63.3583 42.8571 59.4433Z" fill="#323330"/>
</svg>
