<svg width="82" height="82" viewBox="0 0 82 82" fill="none" xmlns="http://www.w3.org/2000/svg">
<path d="M1.28189 57.9501H3.91358V47.5573L7.98795 56.6176C8.46842 57.7144 9.12634 58.102 10.4172 58.102C11.7081 58.102 12.341 57.7144 12.8215 56.6176L16.8958 47.5573V57.9501H19.5275V47.5746C19.5275 46.5624 19.1227 46.0723 18.2873 45.8199C16.2879 45.1959 14.9464 45.736 14.3391 47.0858L10.341 56.0276L6.46967 47.0851C5.88734 45.736 4.52089 45.1959 2.5215 45.8193C1.68613 46.0723 1.28125 46.5618 1.28125 47.5739L1.28189 57.9501ZM21.7165 49.49H24.3476V55.216C24.3232 55.5267 24.4475 56.257 25.8889 56.28C26.6244 56.2916 31.5662 56.28 31.6123 56.28V49.4619H34.2497C34.2619 49.4619 34.2472 58.7599 34.2472 58.7983C34.2613 61.0918 31.4022 61.5895 30.0837 61.628H21.7736V59.8573C21.7877 59.8573 30.078 59.8592 30.0985 59.8566C31.7929 59.6779 31.5924 58.8361 31.5918 58.553V57.8624H25.9985C23.3963 57.8387 21.7383 56.7028 21.7172 55.396C21.7159 55.2762 21.7742 49.5477 21.7165 49.49Z" fill="#00618A"/>
<path d="M36.2786 57.9496H43.8456C44.7316 57.9496 45.5926 57.7645 46.2755 57.4442C47.4139 56.9214 47.9706 56.2129 47.9706 55.284V53.3608C47.9706 52.6017 47.3383 51.8925 46.0981 51.421C45.4401 51.1673 44.6298 51.0334 43.845 51.0334H40.656C39.5932 51.0334 39.0871 50.7131 38.9609 50.0046C38.9359 49.92 38.9359 49.8528 38.9359 49.7682V48.5702C38.9359 48.503 38.9359 48.4351 38.9609 48.3511C39.0871 47.8111 39.3657 47.6593 40.3023 47.5747L40.5554 47.558H48.0718V45.804H40.6822C39.6194 45.804 39.0627 45.8713 38.5566 46.0231C36.9877 46.5125 36.3035 47.2883 36.3035 48.6381V50.1731C36.3035 51.3544 37.6457 52.3666 39.8975 52.603C40.1511 52.619 40.4035 52.6369 40.6566 52.6369H43.3901C43.4914 52.6369 43.5926 52.6369 43.6688 52.6529C44.5042 52.7202 44.8578 52.8727 45.1115 53.1757C45.1765 53.2357 45.2281 53.3088 45.2629 53.3902C45.2977 53.4716 45.3148 53.5593 45.3133 53.6478V55.1834C45.3133 55.3685 45.1871 55.6049 44.934 55.8074C44.7066 56.0098 44.3267 56.145 43.8206 56.1789L43.542 56.1956H36.2786V57.9496ZM64.3898 54.8964C64.3898 56.701 65.7313 57.7132 68.4386 57.9163C68.6916 57.933 68.9447 57.9496 69.1977 57.9496H76.0563V56.1956H69.1478C67.6038 56.1956 67.0222 55.8074 67.0222 54.8791V45.8027H64.3905L64.3898 54.8964ZM49.6503 54.9874V48.7317C49.6503 47.1429 50.7663 46.1788 52.9726 45.8745C53.2077 45.8408 53.4449 45.8239 53.6824 45.8239H58.6787C58.9323 45.8239 59.1604 45.8405 59.4135 45.8745C61.6198 46.1788 62.7364 47.1423 62.7364 48.7317V54.9874C62.7364 56.2776 62.2623 56.9669 61.17 57.4166L63.7633 59.7568H60.7069L58.6095 57.8631L56.498 57.997H53.6824C53.1594 57.9937 52.6392 57.9198 52.136 57.7773C50.462 57.3212 49.6503 56.4416 49.6503 54.9874ZM52.4909 54.8355C52.4909 54.9201 52.5158 55.0053 52.5415 55.1065C52.6933 55.8336 53.3788 56.2392 54.4179 56.2392H56.8087L54.6126 54.2564H57.669L59.5839 55.9861C59.9375 55.7971 60.1694 55.5101 60.2508 55.1405C60.2757 55.0559 60.2757 54.9714 60.2757 54.8868V48.8854C60.2757 48.8182 60.2757 48.733 60.2508 48.6484C60.0983 47.9719 59.4135 47.5837 58.3993 47.5837H54.4172C53.2513 47.5837 52.4902 48.091 52.4902 48.8854L52.4909 54.8355Z" fill="#E48E00"/>
<path d="M78.3715 42.8908C76.7539 42.8466 75.5182 42.9972 74.4611 43.4424C74.1607 43.5693 73.6821 43.5725 73.6334 43.9485C73.7981 44.1221 73.8237 44.3803 73.955 44.593C74.2074 45.0011 74.6335 45.5482 75.0133 45.8345C75.4278 46.1478 75.8558 46.4835 76.3016 46.7551C77.0928 47.2381 77.9769 47.5136 78.7399 47.9966C79.1889 48.2823 79.6348 48.6411 80.0736 48.9633C80.2908 49.1216 80.4356 49.3695 80.7181 49.4688V49.4233C80.5701 49.235 80.5317 48.9761 80.3959 48.7788L79.7975 48.1805C79.2126 47.404 78.4708 46.7231 77.6809 46.1568C77.0518 45.7051 75.6437 45.0946 75.3811 44.3624L75.3349 44.3169C75.7808 44.2663 76.3036 44.1048 76.7148 43.9946C77.4067 43.8089 78.0249 43.8569 78.7392 43.6724L79.7053 43.3957V43.2124C79.3446 42.8422 79.0864 42.3514 78.6931 42.0164C77.6636 41.1394 76.5387 40.263 75.3811 39.5314C74.7392 39.1265 73.9454 38.8632 73.2644 38.5199C73.0364 38.4039 72.6341 38.3443 72.4822 38.1515C72.1241 37.696 71.93 37.1188 71.6539 36.5877C71.0642 35.4404 70.5119 34.2743 69.9979 33.0912C69.6494 32.2936 69.4213 31.5069 68.9863 30.7914C66.8973 27.357 64.6487 25.2839 61.1656 23.2467C60.4244 22.813 59.532 22.6426 58.5896 22.419L57.0714 22.3268C56.7632 22.198 56.4416 21.82 56.1514 21.6368C54.997 20.9078 52.0373 19.3222 51.1827 21.4075C50.6433 22.7233 51.9899 24.0071 52.471 24.674C52.8086 25.1417 53.2417 25.6657 53.4832 26.1917C53.6421 26.5376 53.669 26.8842 53.8055 27.25C54.1392 28.1507 54.4307 29.1315 54.8631 29.9637C55.0816 30.3852 55.3231 30.8292 55.5992 31.2058C55.7683 31.4365 56.0592 31.539 56.1047 31.8958C55.8209 32.293 55.8042 32.9105 55.6447 33.4134C54.9259 35.6806 55.1969 38.4987 56.243 40.1765C56.564 40.6922 57.3199 41.7967 58.359 41.3726C59.2681 41.0023 59.0656 39.8549 59.3257 38.8421C59.3847 38.6134 59.3481 38.4443 59.4635 38.2905V38.3366L60.2918 39.9927C60.9049 40.9799 61.992 42.0106 62.9139 42.707C63.3918 43.0677 63.7685 43.6923 64.386 43.903V43.8563H64.3405C64.2201 43.6698 64.0337 43.593 63.8799 43.4424C63.5199 43.0894 63.1195 42.6512 62.8223 42.2464C61.9837 41.1086 61.2431 39.8626 60.5679 38.566C60.2457 37.9471 59.9657 37.2642 59.6941 36.6339C59.589 36.3911 59.5903 36.0233 59.3725 35.8984C59.074 36.3597 58.6364 36.7332 58.4058 37.2783C58.0381 38.1496 57.9907 39.2124 57.8542 40.3142L57.762 40.3597C57.1207 40.2053 56.8958 39.5455 56.6575 38.9798C56.0553 37.5493 55.9432 35.245 56.4737 33.5979C56.6108 33.1713 57.2302 31.8292 56.9791 31.4352C56.8593 31.0425 56.464 30.8157 56.2437 30.5146C55.9545 30.1117 55.7079 29.68 55.5076 29.2263C55.0143 28.111 54.7843 26.8586 54.2661 25.7304C54.0175 25.191 53.5985 24.6458 53.2539 24.1667C52.8727 23.6349 52.4454 23.2442 52.1494 22.6023C52.0444 22.3742 51.9015 22.0084 52.0572 21.7739C52.1065 21.6157 52.1776 21.5497 52.3339 21.4978C52.6004 21.2922 53.3436 21.5664 53.6216 21.6817C54.3596 21.9885 54.9752 22.28 55.6005 22.6939C55.9003 22.8931 56.2033 23.2775 56.5666 23.3838H56.9804C57.6281 23.5324 58.3539 23.4293 58.9586 23.6132C60.0285 23.9386 60.9869 24.444 61.8568 24.9937C64.5084 26.6683 66.6756 29.0514 68.1593 31.8945C68.3976 32.3526 68.5014 32.7888 68.7109 33.2744C69.135 34.2533 69.6693 35.261 70.0908 36.2187C70.5117 37.1739 70.9223 38.138 71.5175 38.9331C71.8301 39.3507 73.0383 39.575 73.5873 39.8069C73.9723 39.9696 74.6027 40.1394 74.9672 40.3585C75.6636 40.7787 76.3388 41.279 76.9916 41.739C77.3177 41.9709 78.3215 42.4751 78.3715 42.8908ZM57.8081 25.364C57.5292 25.3594 57.2508 25.3904 56.9798 25.4562V25.5017H57.0259C57.1867 25.8329 57.4705 26.0456 57.6697 26.33L58.1303 27.2961L58.1758 27.2506C58.4609 27.0501 58.5909 26.7292 58.5896 26.2384C58.475 26.118 58.4583 25.9675 58.3597 25.8246C58.229 25.6324 57.974 25.5248 57.8081 25.364Z" fill="#00618A"/>
</svg>
