<svg width="72" height="79" viewBox="0 0 72 79" fill="none" xmlns="http://www.w3.org/2000/svg">
<path d="M0 39.4996C0 50.9749 16.1179 60.2784 36 60.2784C55.8821 60.2784 72 50.9749 72 39.4996C72 28.0242 55.8816 18.7207 36 18.7207C16.1179 18.7207 0 28.0242 0 39.4996Z" fill="url(#paint0_radial_541_1686)"/>
<path d="M36 58.7354C55.1053 58.7354 70.5938 50.1226 70.5938 39.4996C70.5938 28.8753 55.1053 20.2637 36 20.2637C16.8947 20.2637 1.40625 28.8753 1.40625 39.4996C1.40625 50.1226 16.8947 58.7354 36 58.7354Z" fill="#777BB3"/>
<path d="M19.5593 41.8844C21.1304 41.8844 22.3026 41.5665 23.0446 40.9401C23.7792 40.3192 24.286 39.2447 24.5521 37.7461C24.7996 36.3451 24.7051 35.3675 24.2708 34.8392C23.8276 34.2998 22.8685 34.0264 21.4206 34.0264H18.9096L17.5186 41.8844H19.5593ZM11.3474 51.5637C11.2898 51.5637 11.2329 51.5496 11.1808 51.5225C11.1287 51.4955 11.0828 51.4561 11.0462 51.4073C11.0097 51.3584 10.9834 51.3013 10.9693 51.24C10.9553 51.1787 10.9537 51.1147 10.9649 51.0527L14.6532 30.23C14.6706 30.1327 14.7183 30.045 14.788 29.9819C14.8577 29.9187 14.9453 29.8841 15.0357 29.8838H22.9861C25.4847 29.8838 27.3443 30.6281 28.5137 32.0964C29.6882 33.5715 30.0516 35.6354 29.5921 38.2282C29.4047 39.2842 29.083 40.2649 28.6358 41.1438C28.1703 42.0478 27.5763 42.8645 26.8763 43.5631C26.0151 44.4469 25.0403 45.0888 23.9811 45.4659C22.9394 45.8387 21.6006 46.0276 20.0042 46.0276H16.7845L15.8654 51.2169C15.848 51.3145 15.8003 51.4025 15.7303 51.4658C15.6603 51.5291 15.5724 51.5637 15.4817 51.5637H11.3474Z" fill="black"/>
<path d="M19.2318 34.4549H21.4205C23.1682 34.4549 23.7751 34.8758 23.9815 35.127C24.323 35.543 24.3882 36.4213 24.1677 37.6649C23.9208 39.0579 23.4629 40.046 22.8065 40.6002C22.1348 41.1681 21.0413 41.4557 19.5592 41.4557H17.992L19.2323 34.4555L19.2318 34.4549ZM22.9859 29.4557H15.0361C14.8548 29.4557 14.6791 29.5249 14.5392 29.6513C14.3992 29.7777 14.3037 29.9536 14.2688 30.1488L10.5805 50.9721C10.5587 51.0961 10.5622 51.2239 10.5906 51.3463C10.6191 51.4687 10.6718 51.5827 10.745 51.6802C10.8183 51.7776 10.9102 51.8561 11.0143 51.9101C11.1184 51.9641 11.2321 51.9921 11.3472 51.9923H15.4816C15.6629 51.9921 15.8384 51.9228 15.9783 51.7963C16.1182 51.6697 16.2136 51.4938 16.2483 51.2986L17.1061 46.4561H20.0035C21.6415 46.4561 23.0208 46.2599 24.1025 45.8735C25.2145 45.4773 26.2377 44.8051 27.1433 43.8757C27.8725 43.1469 28.4913 42.2954 28.9765 41.3532C29.444 40.4355 29.7803 39.4109 29.975 38.3099C30.4587 35.58 30.0655 33.3946 28.8072 31.8146C27.5607 30.2488 25.6021 29.4551 22.9859 29.4551V29.4557ZM17.0442 42.3123H19.5592C21.2258 42.3123 22.4673 41.9686 23.2829 41.2785C24.0991 40.5898 24.6487 39.4393 24.9355 37.8278C25.2083 36.2799 25.084 35.1881 24.5615 34.5518C24.0378 33.9161 22.9915 33.5976 21.4205 33.5976H18.5877L17.0442 42.3123ZM22.9865 30.3111C25.3782 30.3111 27.1225 31.0005 28.2194 32.3775C29.3163 33.755 29.6459 35.6776 29.2094 38.1457C29.0283 39.1628 28.724 40.0923 28.2953 40.9341C27.8656 41.7772 27.3053 42.5475 26.6129 43.2467C25.7872 44.0941 24.8708 44.6984 23.8612 45.0582C22.852 45.4186 21.5662 45.5982 20.0041 45.5982H16.4626L15.4822 51.1344H11.3478L15.0367 30.3111H22.9865Z" fill="white"/>
<path d="M39.0707 46.0276C39.013 46.0277 38.9561 46.0137 38.9039 45.9868C38.8518 45.9599 38.8057 45.9206 38.769 45.8718C38.7323 45.823 38.7059 45.7659 38.6918 45.7046C38.6776 45.6433 38.676 45.5793 38.687 45.5172L40.3183 36.3038C40.4741 35.4274 40.4358 34.7991 40.2114 34.5325C40.0736 34.3702 39.6607 34.098 38.4395 34.098H35.483L33.4322 45.6814C33.4146 45.7789 33.3666 45.8667 33.2965 45.9297C33.2265 45.9928 33.1386 46.0272 33.048 46.027H28.9473C28.8897 46.027 28.8328 46.0131 28.7807 45.9862C28.7286 45.9593 28.6825 45.9201 28.6458 45.8714C28.6091 45.8227 28.5827 45.7657 28.5684 45.7044C28.5541 45.6432 28.5523 45.5793 28.5632 45.5172L32.252 24.6939C32.2695 24.5963 32.3173 24.5085 32.3873 24.4453C32.4573 24.3822 32.5451 24.3477 32.6357 24.3477H36.7363C36.7939 24.3476 36.8508 24.3615 36.9029 24.3884C36.955 24.4153 37.0011 24.4545 37.0378 24.5033C37.0745 24.552 37.101 24.609 37.1153 24.6702C37.1296 24.7314 37.1313 24.7954 37.1205 24.8575L36.2306 29.8838H39.4104C41.8331 29.8838 43.4756 30.3517 44.4324 31.3163C45.4072 32.2995 45.7121 33.8715 45.3369 35.9903L43.6207 45.6814C43.6031 45.7788 43.5553 45.8665 43.4853 45.9296C43.4154 45.9926 43.3276 46.027 43.2371 46.027H39.0707V46.0276Z" fill="black"/>
<path d="M36.7368 23.9189H32.6356C32.4542 23.919 32.2785 23.9882 32.1385 24.1148C31.9985 24.2413 31.903 24.4173 31.8683 24.6127L28.18 45.4353C28.1581 45.5594 28.1615 45.6873 28.1899 45.8097C28.2183 45.9322 28.271 46.0463 28.3443 46.1439C28.4175 46.2414 28.5095 46.32 28.6136 46.3739C28.7178 46.4279 28.8315 46.456 28.9467 46.4562H33.0479C33.2292 46.4561 33.405 46.3869 33.5449 46.2603C33.6849 46.1338 33.7804 45.9578 33.8151 45.7624L35.8047 34.5265H38.4383C39.6578 34.5265 39.9143 34.8123 39.9239 34.8253C39.9981 34.9117 40.0954 35.3159 39.9346 36.2226L38.3033 45.4353C38.2814 45.5595 38.2848 45.6874 38.3132 45.8099C38.3417 45.9324 38.3944 46.0465 38.4677 46.1441C38.5411 46.2416 38.6331 46.3202 38.7373 46.3741C38.8415 46.4281 38.9553 46.4561 39.0706 46.4562H43.2376C43.4188 46.456 43.5944 46.3867 43.7343 46.2601C43.8741 46.1336 43.9696 45.9577 44.0043 45.7624L45.7204 36.0726C46.1226 33.7976 45.7784 32.0917 44.6967 31.0012C43.6639 29.9606 41.9348 29.4551 39.4103 29.4551H36.7047L37.504 24.9404C37.526 24.8162 37.5227 24.6882 37.4943 24.5656C37.4659 24.443 37.4132 24.3288 37.3398 24.2312C37.2665 24.1336 37.1744 24.055 37.0702 24.001C36.9659 23.947 36.852 23.919 36.7368 23.9189ZM36.7368 24.7768L35.7563 30.3118H39.4103C41.7093 30.3118 43.2955 30.7524 44.1674 31.6326C45.0409 32.5127 45.3019 33.9377 44.9538 35.9097L43.237 45.5989H39.0706L40.7024 36.3855C40.888 35.3375 40.8194 34.6228 40.4971 34.2414C40.1748 33.8606 39.4885 33.6699 38.4394 33.6699H35.1606L33.0479 45.5983H28.9461L32.635 24.775H36.7368V24.7768Z" fill="white"/>
<path d="M51.8266 41.8844C53.3976 41.8844 54.5704 41.5665 55.3129 40.9401C56.0464 40.3192 56.5538 39.2447 56.8199 37.7461C57.0674 36.3451 56.9734 35.3675 56.5386 34.8392C56.0954 34.2998 55.1363 34.0264 53.6884 34.0264H51.178L49.7858 41.8844H51.8266ZM43.6163 51.5637C43.5586 51.5638 43.5016 51.5499 43.4494 51.5229C43.3972 51.4959 43.3511 51.4566 43.3144 51.4077C43.2777 51.3589 43.2514 51.3017 43.2372 51.2403C43.2231 51.1789 43.2215 51.1148 43.2327 51.0527L46.921 30.23C46.9385 30.1325 46.9863 30.0446 47.0563 29.9815C47.1262 29.9183 47.214 29.8838 47.3046 29.8838H55.2544C57.7531 29.8838 59.6127 30.6281 60.7816 32.0964C61.9566 33.5715 62.3194 35.6354 61.8599 38.2282C61.6842 39.2495 61.3616 40.2337 60.9042 41.1438C60.4385 42.0476 59.8446 42.8643 59.1447 43.5631C58.2841 44.4469 57.3081 45.0888 56.2495 45.4659C55.2077 45.8387 53.869 46.0276 52.2721 46.0276H49.0529L48.1343 51.2169C48.1169 51.3146 48.0691 51.4027 47.999 51.466C47.9289 51.5293 47.8409 51.5639 47.7501 51.5637H43.6163Z" fill="black"/>
<path d="M51.4996 34.4549H53.6883C55.436 34.4549 56.0429 34.8758 56.2488 35.127C56.5919 35.543 56.656 36.4213 56.4361 37.6649C56.1886 39.0579 55.7307 40.046 55.0743 40.6002C54.4021 41.1681 53.3086 41.4557 51.827 41.4557H50.2598L51.4996 34.4549ZM55.2537 29.4557H47.3039C47.1227 29.4559 46.9472 29.5251 46.8074 29.6515C46.6675 29.7779 46.572 29.9537 46.5372 30.1488L42.8484 50.9721C42.8266 51.0962 42.83 51.224 42.8585 51.3465C42.887 51.4689 42.9397 51.5829 43.013 51.6804C43.0863 51.7779 43.1784 51.8564 43.2825 51.9103C43.3867 51.9642 43.5004 51.9922 43.6156 51.9923H47.75C47.9312 51.9921 48.1068 51.9228 48.2467 51.7963C48.3865 51.6697 48.482 51.4938 48.5167 51.2986L49.3745 46.4561H52.2714C53.9088 46.4561 55.2886 46.2599 56.3697 45.8735C57.4824 45.4773 58.5055 44.8051 59.4117 43.875C60.1407 43.1464 60.7593 42.2952 61.2443 41.3532C61.7123 40.4355 62.0476 39.4109 62.2428 38.3099C62.7265 35.58 62.3339 33.3946 61.075 31.8146C59.8285 30.2488 57.8705 29.4551 55.2532 29.4551L55.2537 29.4557ZM49.312 42.3123H51.8264C53.4937 42.3123 54.7345 41.9686 55.5513 41.2785C56.3669 40.5898 56.917 39.4393 57.2028 37.8278C57.4767 36.2799 57.3524 35.1881 56.8287 34.5518C56.3056 33.9161 55.2588 33.5976 53.6883 33.5976H50.8561L49.312 42.3123ZM55.2537 30.3111C57.6449 30.3111 59.3904 31.0005 60.4867 32.3775C61.5835 33.755 61.9137 35.6776 61.4761 38.1457C61.2961 39.1628 60.9912 40.0923 60.5626 40.9341C60.1334 41.7772 59.5726 42.5475 58.8796 43.2467C58.0544 44.0941 57.1375 44.6984 56.1278 45.0582C55.1193 45.4186 53.834 45.5982 52.2714 45.5982H48.7304L47.7489 51.1344H43.6145L47.3034 30.3111H55.2537Z" fill="white"/>
<defs>
<radialGradient id="paint0_radial_541_1686" cx="0" cy="0" r="1" gradientUnits="userSpaceOnUse" gradientTransform="translate(21.6146 26.0257) scale(47.2733 51.8693)">
<stop stop-color="#AEB2D5"/>
<stop offset="0.3" stop-color="#AEB2D5"/>
<stop offset="0.75" stop-color="#484C89"/>
<stop offset="1" stop-color="#484C89"/>
</radialGradient>
</defs>
</svg>
