<svg width="94" height="94" viewBox="0 0 94 94" fill="none" xmlns="http://www.w3.org/2000/svg">
<path d="M32.3125 58.749C42.8577 58.749 51.4062 50.2005 51.4062 39.6553C51.4062 29.1101 42.8577 20.5615 32.3125 20.5615C21.7673 20.5615 13.2188 29.1101 13.2188 39.6553C13.2188 50.2005 21.7673 58.749 32.3125 58.749Z" stroke="#5457F5" stroke-width="3" stroke-miterlimit="10"/>
<path d="M56.0654 21.2723C58.6916 20.5323 61.4459 20.3638 64.1427 20.7779C66.8396 21.1921 69.4163 22.1793 71.6995 23.6732C73.9826 25.1671 75.9191 27.1329 77.3786 29.4382C78.838 31.7435 79.7865 34.3348 80.1601 37.0375C80.5338 39.7403 80.3239 42.4917 79.5446 45.1065C78.7653 47.7213 77.4348 50.1388 75.6426 52.196C73.8503 54.2533 71.6381 55.9026 69.1548 57.0329C66.6714 58.1632 63.9747 58.7482 61.2463 58.7485" stroke="#5457F5" stroke-width="3" stroke-linecap="round" stroke-linejoin="round"/>
<path d="M5.87354 72.4806C8.85559 68.2389 12.8145 64.7769 17.4159 62.3869C22.0173 59.997 27.1263 58.7492 32.3113 58.749C37.4964 58.7488 42.6054 59.9962 47.2071 62.3858C51.8087 64.7754 55.7678 68.2371 58.7502 72.4786" stroke="#5457F5" stroke-width="3" stroke-linecap="round" stroke-linejoin="round"/>
<path d="M61.2461 58.749C66.4317 58.7453 71.5418 59.9911 76.1438 62.381C80.7458 64.7709 84.7041 68.2345 87.6837 72.4786" stroke="#5457F5" stroke-width="3" stroke-linecap="round" stroke-linejoin="round"/>
</svg>
