<svg width="72" height="72" viewBox="0 0 72 72" fill="none" xmlns="http://www.w3.org/2000/svg">
<path d="M55.125 0H16.875C7.55519 0 0 7.55519 0 16.875V55.125C0 64.4448 7.55519 72 16.875 72H55.125C64.4448 72 72 64.4448 72 55.125V16.875C72 7.55519 64.4448 0 55.125 0Z" fill="#676F73"/>
<path d="M15.118 28.8706L15.923 37.8543H36.027V28.8706H15.118ZM36.0267 10.6875H13.5L14.3167 19.6712H36.0267V10.6875ZM36.0267 61.549V52.2023L35.9873 52.2127L25.9822 49.5112L25.3426 42.3461H16.3243L17.5829 56.4519L35.9854 61.5606L36.0267 61.549Z" fill="#EBEBEB"/>
<path d="M47.058 37.8543L46.0151 49.5053L35.9956 52.2098V61.5561L54.4127 56.4519L54.5477 54.934L56.6588 31.2832L56.8779 28.8706L58.4998 10.6875H35.9956V19.6712H48.6544L47.8371 28.8706H35.9956V37.8543H47.058Z" fill="white"/>
</svg>
