<svg width="67" height="72" viewBox="0 0 67 72" fill="none" xmlns="http://www.w3.org/2000/svg">
<path d="M51.2969 0H15.7031C7.03053 0 0 7.55519 0 16.875V55.125C0 64.4448 7.03053 72 15.7031 72H51.2969C59.9695 72 67 64.4448 67 55.125V16.875C67 7.55519 59.9695 0 51.2969 0Z" fill="#0277BD"/>
<path d="M14.0682 28.8706L14.8172 37.8543H33.5251V28.8706H14.0682ZM33.5249 10.6875H12.5625L13.3225 19.6712H33.5249V10.6875ZM33.5249 61.549V52.2023L33.4882 52.2127L24.1778 49.5112L23.5827 42.3461H15.1907L16.3619 56.4519L33.4864 61.5606L33.5249 61.549Z" fill="#EBEBEB"/>
<path d="M43.7903 37.8543L42.8198 49.5053L33.4961 52.2098V61.5561L50.6342 56.4519L50.7598 54.934L52.7243 31.2832L52.9282 28.8706L54.4375 10.6875H33.4961V19.6712H45.2758L44.5152 28.8706H33.4961V37.8543H43.7903Z" fill="white"/>
</svg>
