<svg width="18" height="10" viewBox="0 0 18 10" fill="none" xmlns="http://www.w3.org/2000/svg">
<path d="M10.0233 9.95099C10.4595 9.95099 10.6379 9.66341 10.6329 9.30286C10.6106 7.94499 11.1443 7.21399 12.1077 8.1667C13.1735 9.2207 13.3941 9.95099 14.6884 9.95099H16.9805C17.5592 9.95099 17.787 9.76682 17.787 9.47782C17.787 8.86653 16.7692 7.78774 15.9068 6.99582C14.6991 5.88728 14.6426 5.86107 15.6826 4.52657C16.9726 2.86978 18.6601 0.746907 17.1674 0.746907H14.3159C13.763 0.746907 13.7229 1.05503 13.5259 1.51403C12.8132 3.17649 11.4587 5.32982 10.9444 5.00045C10.4065 4.65691 10.6529 3.2962 10.6937 1.27391C10.7045 0.739824 10.7016 0.373616 9.87647 0.183782C9.42593 0.0810742 8.98757 0.0385742 8.58073 0.0385742C6.95263 0.0385742 5.82952 0.713616 6.46772 0.831199C7.59298 1.03874 7.48483 3.44637 7.22267 4.4862C6.76569 6.2967 5.04806 3.05253 4.3325 1.43682C4.15988 1.04866 4.10688 0.746907 3.49088 0.746907H1.15941C0.807004 0.746907 0.595703 0.860241 0.595703 1.11241C0.595703 1.53882 2.71587 5.87241 4.74006 8.03282C6.71412 10.1401 8.66525 9.95099 10.0233 9.95099Z" fill="#676F73"/>
</svg>
