<svg width="35" height="34" viewBox="0 0 35 34" fill="none" xmlns="http://www.w3.org/2000/svg">
<path d="M17.5699 9.25461C20.1198 9.25461 20.4222 9.26405 21.4298 9.3097C24.0179 9.42618 25.2268 10.6406 25.3446 13.1811C25.3908 14.1767 25.3995 14.4758 25.3995 16.9975C25.3995 19.5199 25.39 19.8182 25.3446 20.8138C25.226 23.352 24.0203 24.5688 21.4298 24.6853C20.4222 24.7309 20.1214 24.7404 17.5699 24.7404C15.0199 24.7404 14.7175 24.7309 13.7107 24.6853C11.1162 24.568 9.91368 23.3481 9.79589 20.813C9.74973 19.8174 9.74018 19.5191 9.74018 16.9967C9.74018 14.475 9.75053 14.1767 9.79589 13.1803C9.91447 10.6406 11.1202 9.42539 13.7107 9.30891C14.7183 9.26405 15.0199 9.25461 17.5699 9.25461ZM17.5699 7.55225C14.9761 7.55225 14.6514 7.56326 13.6327 7.60891C10.1644 7.76632 8.2368 9.66938 8.07763 13.1024C8.03067 14.1106 8.01953 14.4317 8.01953 16.9967C8.01953 19.5616 8.03067 19.8835 8.07683 20.891C8.23601 24.3209 10.1604 26.2271 13.6319 26.3845C14.6514 26.4301 14.9761 26.4411 17.5699 26.4411C20.1636 26.4411 20.4891 26.4301 21.5078 26.3845C24.9729 26.2271 26.9053 24.324 27.0621 20.891C27.109 19.8835 27.1202 19.5616 27.1202 16.9967C27.1202 14.4317 27.109 14.1106 27.0629 13.1032C26.9069 9.67646 24.9801 7.76711 21.5086 7.6097C20.4891 7.56326 20.1636 7.55225 17.5699 7.55225V7.55225ZM17.5699 12.147C14.8615 12.147 12.6658 14.3184 12.6658 16.9967C12.6658 19.675 14.8615 21.8472 17.5699 21.8472C20.2782 21.8472 22.4739 19.6758 22.4739 16.9967C22.4739 14.3184 20.2782 12.147 17.5699 12.147ZM17.5699 20.1448C15.8118 20.1448 14.3864 18.736 14.3864 16.9967C14.3864 15.2581 15.8118 13.8485 17.5699 13.8485C19.3279 13.8485 20.7533 15.2581 20.7533 16.9967C20.7533 18.736 19.3279 20.1448 17.5699 20.1448ZM22.6681 10.8224C22.0346 10.8224 21.5213 11.33 21.5213 11.9557C21.5213 12.5814 22.0346 13.0891 22.6681 13.0891C23.3008 13.0891 23.8134 12.5814 23.8134 11.9557C23.8134 11.33 23.3008 10.8224 22.6681 10.8224Z" fill="#676F73"/>
</svg>
