<svg width="72" height="72" viewBox="0 0 72 72" fill="none" xmlns="http://www.w3.org/2000/svg">
<path d="M4.5088 17.4399C-1.7772 26.6859 -0.994654 38.7166 3.80719 48.5418C3.92118 48.7775 4.04087 49.0091 4.15885 49.2406L4.38342 49.6834L4.52362 49.9383L4.77383 50.3968C4.92316 50.6657 5.07591 50.9334 5.23207 51.2011L5.49368 51.6421C5.66695 51.9285 5.8442 52.2114 6.02545 52.4937L6.25229 52.8519C6.5025 53.234 6.75841 53.6154 7.02286 53.9899L7.04509 54.0191L7.17504 54.1987C7.40359 54.5213 7.63898 54.8398 7.87722 55.1548L8.14168 55.4989C8.35427 55.7725 8.57028 56.0443 8.79029 56.315L9.03822 56.6183C9.334 56.9755 9.63536 57.3279 9.94216 57.6753L9.96097 57.6945L9.99573 57.7342C10.2973 58.0691 10.6036 58.3994 10.9145 58.7252L11.2092 59.0291C11.4503 59.2776 11.6953 59.522 11.9427 59.7652L12.2431 60.0569C12.5736 60.376 12.9076 60.6886 13.2485 60.9943L13.2644 61.0071L13.4394 61.1599C13.7398 61.4259 14.0452 61.6902 14.353 61.9491L14.7315 62.2577C14.9828 62.4642 15.237 62.6672 15.4929 62.8667L15.8999 63.1834C16.1826 63.3963 16.467 63.6057 16.7542 63.8105L17.0654 64.0362L17.1509 64.0986C17.4234 64.2905 17.7021 64.4754 17.9808 64.6604L18.3398 64.9053C18.7673 65.1818 19.2005 65.4554 19.6388 65.7196L19.9978 65.9267C20.3198 66.1169 20.6442 66.3035 20.9724 66.4861C21.1503 66.5841 21.3327 66.6768 21.5116 66.7708C21.7436 66.895 21.9738 67.021 22.2098 67.1417L22.3711 67.2217L22.6567 67.3628C23.022 67.5413 23.3902 67.7169 23.7624 67.886L23.996 67.9934C24.4227 68.1844 24.8527 68.3674 25.2858 68.5423L25.5999 68.6688C26.0011 68.8269 26.4081 68.9832 26.8167 69.1302L26.9695 69.1845C27.418 69.3449 27.8706 69.4936 28.3265 69.6389L28.6543 69.7392C29.1182 69.8821 29.577 70.053 30.0552 70.1434C60.4559 75.8173 69.2867 51.4467 69.2867 51.4467C61.8699 61.3355 48.7052 63.9441 36.2318 61.0398C35.7593 60.9307 35.301 60.7796 34.84 60.6402L34.4929 60.5323C34.0436 60.3914 33.5967 60.2426 33.1523 60.0861L32.9682 60.0178C32.572 59.8745 32.1779 59.7249 31.7861 59.5692L31.4544 59.4357C31.0258 59.2624 30.5995 59.0816 30.1783 58.8926L29.9235 58.7771C29.5628 58.6103 29.2039 58.4394 28.8469 58.2644L28.5357 58.1116C28.2559 57.9722 27.9789 57.824 27.703 57.6782C27.5183 57.5784 27.3303 57.4845 27.1473 57.3807C26.8115 57.1956 26.4788 57.0046 26.1493 56.8079L25.8125 56.6154C25.375 56.3511 24.9418 56.0794 24.513 55.8005L24.1625 55.5614C23.8508 55.3568 23.5424 55.1469 23.2374 54.932L22.9399 54.7179C22.6463 54.5054 22.3548 54.2898 22.0656 54.071L21.6786 53.7712C21.4129 53.5645 21.1499 53.3541 20.8898 53.14L20.5381 52.8513C20.2069 52.5734 19.8793 52.2908 19.5555 52.0038L19.4478 51.911C19.099 51.596 18.7547 51.2757 18.4151 50.9503L18.1238 50.6639C17.8725 50.4189 17.6251 50.1722 17.3817 49.919L17.0911 49.6221C16.7822 49.2987 16.4786 48.97 16.1803 48.6363L16.1353 48.5873C15.8209 48.2346 15.5129 47.876 15.2114 47.5117L14.9697 47.2177C14.7444 46.9403 14.5227 46.6599 14.3046 46.3766L14.0612 46.0663C13.8004 45.7212 13.5445 45.3724 13.2935 45.0198C6.36856 35.3521 3.88015 22.0189 9.41495 11.069M24.0223 9.64927C19.4757 16.3445 19.7231 25.3076 23.2694 32.3883C23.8628 33.5786 24.5346 34.7263 25.2801 35.8234C25.9612 36.8226 26.7164 38.0114 27.6204 38.814C27.9509 39.1846 28.2911 39.5459 28.6406 39.8978L28.9096 40.1691C29.2491 40.5077 29.5964 40.838 29.9515 41.1595L29.9936 41.1968L30.0039 41.2073C30.401 41.5613 30.8068 41.9049 31.2208 42.238L31.4972 42.4585C31.9134 42.7867 32.3378 43.1039 32.7699 43.4099L32.8069 43.4385C32.9984 43.5738 33.1934 43.6998 33.3877 43.8305L33.663 44.0165C33.9731 44.2201 34.2871 44.4184 34.6063 44.6086L34.7402 44.6879C35.0155 44.8501 35.2942 45.0099 35.574 45.1651L35.871 45.3232C36.0642 45.4264 36.2574 45.532 36.4541 45.6323L36.5424 45.6731C36.9431 45.875 37.3472 46.0698 37.7598 46.2535L38.0288 46.3667C38.3588 46.5102 38.6923 46.6502 39.0262 46.7808L39.4537 46.9412C39.7575 47.0567 40.0624 47.1617 40.3696 47.2673L40.784 47.4032C41.2211 47.542 41.6532 47.7176 42.1086 47.7952C65.5809 51.7751 71 33.279 71 33.279C66.1155 40.4788 56.6554 43.9145 46.561 41.2324C46.1148 41.1123 45.6714 40.9812 45.2313 40.8393L44.8318 40.7069C44.5199 40.6036 44.21 40.4943 43.9022 40.379L43.4827 40.2192C43.1469 40.0873 42.8132 39.9496 42.4819 39.8062L42.2123 39.6896C41.7995 39.5057 41.3913 39.3114 40.988 39.1068C40.7811 39.0036 40.5777 38.8945 40.3736 38.7872L40.0191 38.6005C39.7576 38.4555 39.4986 38.3058 39.2423 38.1514L39.0565 38.0435C38.739 37.854 38.4252 37.658 38.1155 37.4555L37.8316 37.2618C37.6272 37.1265 37.424 36.9891 37.2224 36.8495C36.7921 36.5433 36.3691 36.2267 35.9536 35.8998L35.6681 35.6694C31.2498 32.0996 27.7469 27.2196 26.0821 21.687C24.3369 15.9496 24.713 9.5087 27.7366 4.2811M40.434 3.82904C37.7541 7.86552 37.4908 12.8785 39.3506 17.3361C41.3118 22.0685 45.3299 25.78 50.0201 27.541C50.2133 27.614 50.4071 27.6793 50.6026 27.7475L50.8596 27.8309C51.136 27.9196 51.4102 28.0229 51.6957 28.0783C64.6564 30.6413 68.1719 21.2717 69.1072 19.8921C66.0283 24.4297 60.8531 25.5187 54.5033 23.9415C54.0017 23.8172 53.4506 23.6317 52.9673 23.4561C52.3464 23.2304 51.7374 22.9716 51.1429 22.6809C50.0148 22.1251 48.9433 21.456 47.9443 20.6837C42.2624 16.271 38.7327 7.85444 42.4403 1" fill="#676F73"/>
</svg>
