<svg width="102" height="41" viewBox="0 0 102 41" fill="none" xmlns="http://www.w3.org/2000/svg">
<g clip-path="url(#clip0_660_1719)">
<path d="M15.75 0.322266C15.7785 0.32228 15.8059 0.33259 15.8272 0.351245L31.0342 13.707C31.0518 13.7227 31.0643 13.7433 31.0699 13.7661C31.0755 13.7889 31.0741 13.8128 31.0657 13.8347C31.0574 13.8565 31.0425 13.8752 31.0231 13.8885C31.0037 13.9017 30.9807 13.9088 30.9571 13.9088H0.551691C0.528115 13.9088 0.505097 13.9017 0.485692 13.8885C0.466287 13.8752 0.451411 13.8565 0.443038 13.8347C0.434733 13.8128 0.433296 13.7889 0.438914 13.7661C0.444533 13.7433 0.456947 13.7227 0.474548 13.707L15.6762 0.351245C15.6967 0.333464 15.7228 0.323228 15.75 0.322266ZM30.6496 13.678L15.75 0.59275L0.864611 13.678H30.6496Z" fill="#263238" stroke="#263238" stroke-miterlimit="10"/>
<path d="M30.9611 13.6778C30.9776 13.6777 30.994 13.6814 31.0089 13.6885C31.0299 13.6976 31.0477 13.7127 31.0601 13.7318C31.0725 13.7509 31.0788 13.7732 31.0784 13.7958V40.5052C31.0788 40.5279 31.0725 40.5502 31.0601 40.5693C31.0477 40.5884 31.0299 40.6034 31.0089 40.6125C30.9884 40.6217 30.9657 40.6248 30.9435 40.6213C30.9213 40.6179 30.9006 40.6081 30.8839 40.5932L15.6758 27.2375C15.6635 27.2267 15.6537 27.2135 15.6469 27.1987C15.6402 27.1839 15.6367 27.1678 15.6367 27.1516C15.6367 27.1354 15.6402 27.1193 15.6469 27.1045C15.6537 27.0897 15.6635 27.0765 15.6758 27.0657L30.8785 13.7068C30.9014 13.6873 30.9309 13.677 30.9611 13.6778ZM30.8448 40.2476V14.0502L15.9344 27.1452L30.8448 40.2476Z" fill="#263238" stroke="#263238" stroke-miterlimit="10"/>
<path d="M0.55096 13.6778C0.579342 13.6782 0.606688 13.6884 0.628103 13.7068L15.8308 27.0637C15.8431 27.0744 15.8529 27.0876 15.8596 27.1025C15.8664 27.1173 15.8699 27.1333 15.8699 27.1495C15.8699 27.1657 15.8664 27.1818 15.8596 27.1966C15.8529 27.2114 15.8431 27.2246 15.8308 27.2354L0.628103 40.5911C0.611526 40.6062 0.590819 40.616 0.568586 40.6195C0.546352 40.6229 0.523586 40.6198 0.503152 40.6105C0.482129 40.6014 0.464306 40.5863 0.451931 40.5672C0.439556 40.5481 0.433183 40.5258 0.433614 40.5031V13.7938C0.433183 13.7711 0.439556 13.7488 0.451931 13.7297C0.464306 13.7106 0.482129 13.6955 0.503152 13.6864C0.518227 13.68 0.534572 13.6771 0.55096 13.6778ZM15.5776 27.1495L0.667218 14.0546V40.2477L15.5776 27.1495Z" fill="#263238" stroke="#263238" stroke-miterlimit="10"/>
<path d="M20.7721 4.67969C20.7925 4.67978 20.8125 4.68507 20.8302 4.69503C20.8479 4.705 20.8627 4.71931 20.8731 4.73658C20.8832 4.75407 20.8885 4.77386 20.8885 4.794C20.8885 4.81414 20.8832 4.83393 20.8731 4.85142L15.8566 13.7034L31.0561 40.4482L30.8507 40.5619L15.7252 13.9427L0.64958 40.5619L0.445312 40.4546L15.5915 13.7098L10.5859 4.89973C10.5755 4.88234 10.57 4.86251 10.57 4.8423C10.57 4.8221 10.5755 4.80226 10.5859 4.78488C10.5961 4.76756 10.6107 4.75314 10.6282 4.74299C10.6457 4.73284 10.6655 4.72731 10.6858 4.72692L20.7688 4.68613L20.7721 4.67969ZM15.7273 13.4672L20.5722 4.91153L10.889 4.95125L15.7273 13.4672Z" fill="#263238" stroke="#263238" stroke-miterlimit="10"/>
<path d="M38.9926 36.9949C39.1838 37.4242 39.6945 37.9244 40.2204 38.1756L39.55 39.5623C38.5939 39.1212 37.8757 38.3645 37.541 37.5927L38.9926 36.9949ZM45.9931 36.9004C45.9931 38.6178 44.6056 40.099 42.0381 40.099C41.7839 40.0996 41.5298 40.0838 41.2776 40.0518L41.9947 38.5706C43.3344 38.5867 44.385 37.9405 44.385 36.9476C44.385 35.9548 43.38 35.577 41.4818 35.0414C39.2501 34.4113 37.7822 33.734 37.8463 31.8278C37.8941 30.032 39.3772 28.8031 41.6894 28.8031C42.1695 28.7976 42.6479 28.8613 43.1095 28.992L42.2457 30.3498C42.1023 30.3347 41.8947 30.3186 41.735 30.3186C40.0933 30.3186 39.4707 31.1065 39.4707 31.8782C39.4707 32.7294 40.2519 33.1072 42.0229 33.5956C44.2873 34.2224 45.9931 34.9158 45.9931 36.8972V36.9004Z" fill="#263238"/>
<path d="M54.875 28.9141V30.4103H46.7891V28.9141H54.875ZM50.0747 32.5527H51.5893V39.9417H50.0747V32.5527Z" fill="#263238"/>
<path d="M63.9034 39.9417H62.229L59.1509 31.167L56.0728 39.9417H54.3984L58.4012 28.9141H59.8843L63.9034 39.9417Z" fill="#263238"/>
<path d="M69.4236 36.0186H66.7887V39.9417H65.2578V34.5223H69.4366C70.7763 34.5223 71.526 33.5456 71.526 32.4744C71.526 31.4032 70.7763 30.4103 69.4366 30.4103H65.2578V28.9141H69.4366C71.7009 28.9141 73.0884 30.5048 73.0884 32.4744C73.0884 33.9234 72.3279 35.1685 70.999 35.7202L73.4079 39.9417H71.6694L69.4236 36.0186Z" fill="#263238"/>
<path d="M82.2891 28.9141V30.4103H74.2031V28.9141H82.2891ZM77.4888 32.5527H79.0034V39.9417H77.4888V32.5527Z" fill="#263238"/>
<path d="M85.2536 30.6937H83.7227V28.9141H85.2536V30.6937ZM90.6601 35.5463L92.1432 36.1903C91.889 38.7267 90.1875 40.0544 87.9492 40.0544C85.5252 40.0544 83.7227 38.4787 83.7227 35.5012V32.2382H85.2536V35.4519C85.2536 37.6887 86.3868 38.556 87.9492 38.556C89.5117 38.556 90.6286 37.7209 90.6601 35.5463ZM92.1758 28.9141V34.3334L90.6601 33.6894V28.9141H92.1758Z" fill="#263238"/>
<path d="M101.999 32.4744C101.999 34.4279 100.595 36.0165 98.3467 36.0165H95.6826V39.9396H94.168V34.5223H98.3467C99.6864 34.5223 100.42 33.5456 100.42 32.4744C100.42 31.4032 99.7016 30.4103 98.3467 30.4103H94.168V28.9141H98.3467C100.627 28.9141 101.999 30.5048 101.999 32.4744Z" fill="#263238"/>
<path d="M42.5408 20.6544V24.0312H41.5096V20.6544L37.5547 14.2637H38.6738L42.0638 19.7474L45.4537 14.2637H46.4968L42.5408 20.6544Z" fill="#263238"/>
<path d="M49.3563 23.4664C48.581 23.0538 47.9358 22.438 47.4918 21.6867C47.0515 20.911 46.8203 20.0365 46.8203 19.1472C46.8203 18.2578 47.0515 17.3834 47.4918 16.6076C47.9359 15.8566 48.581 15.2412 49.3563 14.8291C50.175 14.4038 51.0859 14.181 52.0108 14.1797C52.9358 14.1784 53.8473 14.3986 54.6672 14.8216C55.4391 15.2361 56.0812 15.8516 56.5241 16.6012C56.9686 17.3781 57.2021 18.2553 57.2021 19.1477C57.2021 20.0401 56.9686 20.9173 56.5241 21.6942C56.0812 22.4435 55.439 23.0586 54.6672 23.4728C53.8473 23.8955 52.9359 24.1158 52.011 24.1146C51.0861 24.1135 50.1752 23.8911 49.3563 23.4664ZM54.137 22.671C54.759 22.3327 55.2736 21.8303 55.6234 21.2198C55.9755 20.5846 56.1601 19.872 56.1601 19.1477C56.1601 18.4234 55.9755 17.7108 55.6234 17.0756C55.2748 16.4653 54.7613 15.9629 54.1403 15.6244C53.4871 15.2805 52.7584 15.1006 52.0183 15.1006C51.2782 15.1006 50.5494 15.2805 49.8963 15.6244C49.2712 15.9624 48.753 16.4646 48.3991 17.0756C48.0421 17.7093 47.8547 18.4225 47.8547 19.1477C47.8547 19.8729 48.0421 20.5861 48.3991 21.2198C48.7533 21.8305 49.2714 22.3327 49.8963 22.671C50.5496 23.0142 51.2783 23.1937 52.0183 23.1937C52.7583 23.1937 53.4869 23.0142 54.1403 22.671H54.137Z" fill="#263238"/>
<path d="M60.5364 23.0265C59.8207 22.3009 59.4629 21.2451 59.4629 19.8591V14.2637H60.5136V19.8172C60.5136 20.9528 60.7725 21.7993 61.2904 22.3568C61.8083 22.9142 62.557 23.1933 63.5363 23.194C64.525 23.194 65.2783 22.9149 65.7963 22.3568C66.3142 21.7986 66.5731 20.9521 66.5731 19.8172V14.2637H67.5901V19.8591C67.5901 21.2458 67.2345 22.3017 66.5231 23.0265C65.8118 23.7514 64.8162 24.1142 63.5363 24.1149C62.252 24.1149 61.252 23.7521 60.5364 23.0265Z" fill="#263238"/>
<path d="M77.4861 24.0312L75.2261 20.8916C74.9634 20.92 74.6993 20.9339 74.4351 20.9335H71.7796V24.0312H70.7344V14.2637H74.4351C75.6969 14.2637 76.6856 14.5613 77.4013 15.1567C78.117 15.7521 78.4748 16.5707 78.4748 17.6125C78.4748 18.376 78.2792 19.0201 77.8881 19.5446C77.4969 20.0691 76.9392 20.448 76.2148 20.6813L78.6302 24.0301L77.4861 24.0312ZM76.6527 19.4158C77.1699 18.9864 77.4288 18.3864 77.4296 17.6158C77.4296 16.8286 77.1706 16.2204 76.6527 15.7911C76.1348 15.3617 75.3862 15.1499 74.4068 15.1556H71.7796V20.0533H74.4068C75.3862 20.0541 76.1348 19.8405 76.6527 19.4126V19.4158Z" fill="#263238"/>
</g>
<defs>
<clipPath id="clip0_660_1719">
<rect width="102" height="41" fill="white"/>
</clipPath>
</defs>
</svg>
