<svg width="202" height="80" viewBox="0 0 202 80" fill="none" xmlns="http://www.w3.org/2000/svg">
<g clip-path="url(#clip0_660_1236)">
<path d="M31.1881 0.625C31.2444 0.625029 31.2988 0.645144 31.3409 0.681545L61.4568 26.7416C61.4917 26.7722 61.5162 26.8124 61.5274 26.8568C61.5385 26.9013 61.5356 26.9479 61.5192 26.9908C61.5026 27.0333 61.4732 27.0698 61.4347 27.0956C61.3963 27.1215 61.3507 27.1353 61.304 27.1353H1.08939C1.0427 27.1353 0.997112 27.1215 0.958682 27.0956C0.920252 27.0698 0.890793 27.0333 0.874211 26.9908C0.857763 26.9479 0.854917 26.9013 0.866044 26.8568C0.87717 26.8124 0.901756 26.7722 0.936612 26.7416L31.0418 0.681545C31.0824 0.646851 31.1341 0.626878 31.1881 0.625ZM60.6951 26.685L31.1881 1.15277L1.70909 26.685H60.6951Z" fill="black" stroke="black" stroke-miterlimit="10"/>
<path d="M61.3131 26.6847C61.3458 26.6845 61.3782 26.6917 61.4077 26.7056C61.4494 26.7234 61.4847 26.7527 61.5092 26.79C61.5337 26.8273 61.5463 26.8708 61.5454 26.915V79.0308C61.5463 79.0751 61.5337 79.1186 61.5092 79.1559C61.4847 79.1931 61.4494 79.2225 61.4077 79.2403C61.3672 79.2582 61.3222 79.2641 61.2782 79.2574C61.2342 79.2507 61.1933 79.2317 61.1603 79.2026L31.0422 53.1426C31.0179 53.1216 30.9984 53.0958 30.9851 53.0669C30.9717 53.038 30.9648 53.0067 30.9648 52.975C30.9648 52.9434 30.9717 52.9121 30.9851 52.8832C30.9984 52.8543 31.0179 52.8285 31.0422 52.8075L61.1495 26.7412C61.1949 26.7032 61.2532 26.6831 61.3131 26.6847ZM61.0828 78.5282V27.4114L31.5543 52.9625L61.0828 78.5282Z" fill="black" stroke="black" stroke-miterlimit="10"/>
<path d="M1.08985 26.6848C1.14606 26.6854 1.20022 26.7054 1.24263 26.7413L31.3499 52.8034C31.3743 52.8245 31.3937 52.8503 31.4071 52.8791C31.4204 52.908 31.4273 52.9393 31.4273 52.971C31.4273 53.0026 31.4204 53.0339 31.4071 53.0628C31.3937 53.0917 31.3743 53.1175 31.3499 53.1385L1.24263 79.1985C1.2098 79.2279 1.16879 79.2471 1.12476 79.2538C1.08073 79.2605 1.03564 79.2544 0.995175 79.2362C0.95354 79.2185 0.918244 79.1891 0.893737 79.1518C0.869229 79.1145 0.856608 79.071 0.857463 79.0268V26.911C0.856608 26.8667 0.869229 26.8232 0.893737 26.786C0.918244 26.7487 0.95354 26.7193 0.995175 26.7015C1.02503 26.6891 1.0574 26.6833 1.08985 26.6848ZM30.8486 52.971L1.32009 27.4199V78.5283L30.8486 52.971Z" fill="black" stroke="black" stroke-miterlimit="10"/>
<path d="M41.1378 9.12891C41.1781 9.12909 41.2178 9.13941 41.2528 9.15885C41.2879 9.1783 41.3172 9.20621 41.3379 9.23991C41.3579 9.27404 41.3684 9.31266 41.3684 9.35196C41.3684 9.39125 41.3579 9.42987 41.3379 9.464L31.4033 26.7361L61.5041 78.921L61.0974 79.143L31.1429 27.2032L1.28734 79.143L0.882812 78.9336L30.8782 26.7487L20.9651 9.55825C20.9445 9.52433 20.9336 9.48563 20.9336 9.4462C20.9336 9.40678 20.9445 9.36808 20.9651 9.33415C20.9854 9.30037 21.0142 9.27223 21.0489 9.25242C21.0836 9.23262 21.1229 9.22182 21.1631 9.22106L41.1313 9.14147L41.1378 9.12891ZM31.1472 26.2754L40.7419 9.58129L21.5655 9.65878L31.1472 26.2754Z" fill="black" stroke="black" stroke-miterlimit="10"/>
<path d="M77.2204 72.1829C77.5991 73.0207 78.6105 73.9966 79.6519 74.4867L78.3243 77.1926C76.4307 76.3318 75.0084 74.8553 74.3457 73.3495L77.2204 72.1829ZM91.0842 71.9986C91.0842 75.3496 88.3364 78.2398 83.2518 78.2398C82.7482 78.2409 82.2451 78.2101 81.7456 78.1476L83.1657 75.2574C85.8188 75.2888 87.8996 74.028 87.8996 72.0908C87.8996 70.1535 85.9092 69.4163 82.1501 68.3712C77.7304 67.1418 74.8234 65.8203 74.9503 62.1007C75.045 58.5969 77.9822 56.1989 82.5611 56.1989C83.5119 56.1883 84.4593 56.3125 85.3734 56.5675L83.6628 59.2168C83.3787 59.1875 82.9678 59.1561 82.6515 59.1561C79.4002 59.1561 78.1672 60.6933 78.1672 62.1992C78.1672 63.86 79.7143 64.5972 83.2217 65.5501C87.7059 66.7732 91.0842 68.1262 91.0842 71.9923V71.9986Z" fill="black"/>
<path d="M108.677 56.415V59.3346H92.6641V56.415H108.677ZM99.171 63.5149H102.17V77.9324H99.171V63.5149Z" fill="black"/>
<path d="M126.55 77.9324H123.234L117.138 60.8111L111.042 77.9324H107.727L115.654 56.415H118.591L126.55 77.9324Z" fill="black"/>
<path d="M137.484 70.2775H132.266V77.9324H129.234V67.358H137.51C140.163 67.358 141.648 65.4522 141.648 63.362C141.648 61.2718 140.163 59.3346 137.51 59.3346H129.234V56.415H137.51C141.994 56.415 144.742 59.5189 144.742 63.362C144.742 66.1894 143.236 68.6188 140.604 69.6953L145.375 77.9324H141.932L137.484 70.2775Z" fill="black"/>
<path d="M162.965 56.415V59.3346H146.951V56.415H162.965ZM153.458 63.5149H156.458V77.9324H153.458V63.5149Z" fill="black"/>
<path d="M168.838 59.8875H165.807V56.415H168.838V59.8875ZM179.546 69.356L182.483 70.6126C181.979 75.5616 178.61 78.1523 174.177 78.1523C169.376 78.1523 165.807 75.0778 165.807 69.2681V62.9012H168.838V69.1717C168.838 73.5364 171.083 75.2286 174.177 75.2286C177.271 75.2286 179.483 73.5992 179.546 69.356ZM182.547 56.415V66.9894L179.546 65.7328V56.415H182.547Z" fill="black"/>
<path d="M202 63.362C202 67.1737 199.22 70.2734 194.768 70.2734H189.492V77.9282H186.492V67.358H194.768C197.421 67.358 198.873 65.4522 198.873 63.362C198.873 61.2718 197.451 59.3346 194.768 59.3346H186.492V56.415H194.768C199.284 56.415 202 59.5189 202 63.362Z" fill="black"/>
<path d="M84.2455 40.2989V46.8877H82.2035V40.2989L74.3711 27.8291H76.5874L83.3009 38.5291L90.0143 27.8291H92.08L84.2455 40.2989Z" fill="black"/>
<path d="M97.7449 45.7854C96.2094 44.9804 94.9318 43.7789 94.0525 42.3129C93.1805 40.7993 92.7227 39.093 92.7227 37.3577C92.7227 35.6224 93.1805 33.9161 94.0525 32.4025C94.9319 30.9372 96.2096 29.7363 97.7449 28.9321C99.3662 28.1024 101.17 27.6676 103.002 27.6651C104.834 27.6625 106.639 28.0922 108.263 28.9175C109.791 29.7264 111.063 30.9273 111.94 32.3899C112.82 33.9058 113.283 35.6175 113.283 37.3587C113.283 39.1 112.82 40.8117 111.94 42.3276C111.063 43.7896 109.791 44.9898 108.263 45.7979C106.639 46.6228 104.834 47.0525 103.002 47.0503C101.17 47.0481 99.3666 46.6141 97.7449 45.7854ZM107.213 44.2334C108.444 43.5733 109.464 42.593 110.156 41.4019C110.854 40.1624 111.219 38.7719 111.219 37.3587C111.219 35.9455 110.854 34.5551 110.156 33.3156C109.466 32.1248 108.449 31.1444 107.219 30.484C105.926 29.813 104.482 29.462 103.017 29.462C101.551 29.462 100.108 29.813 98.8143 30.484C97.5764 31.1434 96.5501 32.1235 95.8492 33.3156C95.1422 34.5521 94.7712 35.9437 94.7712 37.3587C94.7712 38.7738 95.1422 40.1654 95.8492 41.4019C96.5507 42.5935 97.5768 43.5734 98.8143 44.2334C100.108 44.9031 101.551 45.2533 103.017 45.2533C104.482 45.2533 105.925 44.9031 107.219 44.2334H107.213Z" fill="black"/>
<path d="M119.884 44.9274C118.466 43.5116 117.758 41.4515 117.758 38.747V27.8291H119.839V38.6653C119.839 40.8811 120.351 42.5328 121.377 43.6205C122.403 44.7082 123.885 45.2527 125.825 45.2541C127.783 45.2541 129.275 44.7096 130.3 43.6205C131.326 42.5314 131.839 40.8797 131.839 38.6653V27.8291H133.853V38.747C133.853 41.4529 133.149 43.513 131.74 44.9274C130.331 46.3418 128.359 47.0497 125.825 47.051C123.281 47.051 121.301 46.3432 119.884 44.9274Z" fill="black"/>
<path d="M153.453 46.8877L148.977 40.7617C148.457 40.817 147.934 40.8443 147.411 40.8434H142.152V46.8877H140.082V27.8291H147.411C149.91 27.8291 151.868 28.4099 153.285 29.5716C154.702 30.7333 155.411 32.3306 155.411 34.3635C155.411 35.8532 155.024 37.1099 154.249 38.1333C153.475 39.1567 152.37 39.896 150.935 40.3512L155.719 46.8856L153.453 46.8877ZM151.803 37.882C152.827 37.0442 153.34 35.8735 153.341 34.3698C153.341 32.8339 152.828 31.6471 151.803 30.8094C150.777 29.9716 149.294 29.5583 147.355 29.5695H142.152V39.126H147.355C149.294 39.1274 150.777 38.7106 151.803 37.8757V37.882Z" fill="black"/>
</g>
<defs>
<clipPath id="clip0_660_1236">
<rect width="202" height="80" fill="white" transform="translate(0 -0.00292969)"/>
</clipPath>
</defs>
</svg>
