<svg width="82" height="82" viewBox="0 0 82 82" fill="none" xmlns="http://www.w3.org/2000/svg">
<path d="M1.28189 57.9501H3.91358V47.5573L7.98795 56.6176C8.46842 57.7144 9.12634 58.102 10.4172 58.102C11.7081 58.102 12.341 57.7144 12.8215 56.6176L16.8958 47.5573V57.9501H19.5275V47.5746C19.5275 46.5624 19.1227 46.0723 18.2873 45.8199C16.2879 45.1959 14.9464 45.736 14.3391 47.0858L10.341 56.0276L6.46967 47.0851C5.88734 45.736 4.52089 45.1959 2.5215 45.8193C1.68613 46.0723 1.28125 46.5618 1.28125 47.5739L1.28189 57.9501ZM21.7165 49.49H24.3476V55.216C24.3232 55.5267 24.4475 56.257 25.8889 56.28C26.6244 56.2916 31.5662 56.28 31.6123 56.28V49.4619H34.2497C34.2619 49.4619 34.2472 58.7599 34.2472 58.7983C34.2613 61.0918 31.4022 61.5895 30.0837 61.628H21.7736V59.8573C21.7877 59.8573 30.078 59.8592 30.0985 59.8566C31.7929 59.6779 31.5924 58.8361 31.5918 58.553V57.8624H25.9985C23.3963 57.8387 21.7383 56.7028 21.7172 55.396C21.7159 55.2762 21.7742 49.5477 21.7165 49.49Z" fill="#676F73"/>
<path d="M36.2788 57.9496H43.8459C44.7319 57.9496 45.5929 57.7645 46.2758 57.4442C47.4142 56.9214 47.9709 56.2129 47.9709 55.284V53.3608C47.9709 52.6017 47.3386 51.8925 46.0983 51.421C45.4404 51.1673 44.63 51.0334 43.8452 51.0334H40.6562C39.5934 51.0334 39.0873 50.7131 38.9611 50.0046C38.9361 49.92 38.9361 49.8528 38.9361 49.7682V48.5702C38.9361 48.503 38.9361 48.4351 38.9611 48.3511C39.0873 47.8111 39.366 47.6593 40.3026 47.5747L40.5556 47.558H48.0721V45.804H40.6825C39.6197 45.804 39.063 45.8713 38.5569 46.0231C36.988 46.5125 36.3038 47.2883 36.3038 48.6381V50.1731C36.3038 51.3544 37.6459 52.3666 39.8977 52.603C40.1514 52.619 40.4038 52.6369 40.6568 52.6369H43.3904C43.4916 52.6369 43.5928 52.6369 43.6691 52.6529C44.5044 52.7202 44.8581 52.8727 45.1117 53.1757C45.1768 53.2357 45.2283 53.3088 45.2631 53.3902C45.2979 53.4716 45.3151 53.5593 45.3135 53.6478V55.1834C45.3135 55.3685 45.1873 55.6049 44.9343 55.8074C44.7069 56.0098 44.327 56.145 43.8209 56.1789L43.5422 56.1956H36.2788V57.9496ZM64.3901 54.8964C64.3901 56.701 65.7315 57.7132 68.4388 57.9163C68.6919 57.933 68.9449 57.9496 69.198 57.9496H76.0565V56.1956H69.148C67.6041 56.1956 67.0224 55.8074 67.0224 54.8791V45.8027H64.3907L64.3901 54.8964ZM49.6506 54.9874V48.7317C49.6506 47.1429 50.7665 46.1788 52.9729 45.8745C53.208 45.8408 53.4452 45.8239 53.6827 45.8239H58.6789C58.9326 45.8239 59.1606 45.8405 59.4137 45.8745C61.62 46.1788 62.7366 47.1423 62.7366 48.7317V54.9874C62.7366 56.2776 62.2626 56.9669 61.1703 57.4166L63.7635 59.7568H60.7071L58.6097 57.8631L56.4982 57.997H53.6827C53.1596 57.9937 52.6395 57.9198 52.1362 57.7773C50.4622 57.3212 49.6506 56.4416 49.6506 54.9874ZM52.4911 54.8355C52.4911 54.9201 52.5161 55.0053 52.5417 55.1065C52.6935 55.8336 53.379 56.2392 54.4181 56.2392H56.8089L54.6129 54.2564H57.6693L59.5841 55.9861C59.9377 55.7971 60.1696 55.5101 60.251 55.1405C60.276 55.0559 60.276 54.9714 60.276 54.8868V48.8854C60.276 48.8182 60.276 48.733 60.251 48.6484C60.0985 47.9719 59.4137 47.5837 58.3996 47.5837H54.4175C53.2515 47.5837 52.4905 48.091 52.4905 48.8854L52.4911 54.8355Z" fill="#676F73"/>
<path d="M78.3717 42.8908C76.7542 42.8466 75.5184 42.9972 74.4614 43.4424C74.1609 43.5693 73.6824 43.5725 73.6337 43.9485C73.7983 44.1221 73.8239 44.3803 73.9553 44.593C74.2077 45.0011 74.6337 45.5482 75.0136 45.8345C75.4281 46.1478 75.856 46.4835 76.3019 46.7551C77.0931 47.2381 77.9771 47.5136 78.7401 47.9966C79.1892 48.2823 79.6351 48.6411 80.0739 48.9633C80.2911 49.1216 80.4358 49.3695 80.7184 49.4688V49.4233C80.5704 49.235 80.5319 48.9761 80.3961 48.7788L79.7978 48.1805C79.2129 47.404 78.471 46.7231 77.6812 46.1568C77.0521 45.7051 75.644 45.0946 75.3813 44.3624L75.3352 44.3169C75.7811 44.2663 76.3038 44.1048 76.7151 43.9946C77.407 43.8089 78.0252 43.8569 78.7395 43.6724L79.7055 43.3957V43.2124C79.3449 42.8422 79.0867 42.3514 78.6933 42.0164C77.6639 41.1394 76.5389 40.263 75.3813 39.5314C74.7394 39.1265 73.9457 38.8632 73.2647 38.5199C73.0366 38.4039 72.6343 38.3443 72.4825 38.1515C72.1244 37.696 71.9303 37.1188 71.6542 36.5877C71.0645 35.4404 70.5122 34.2743 69.9981 33.0912C69.6496 32.2936 69.4216 31.5069 68.9866 30.7914C66.8975 27.357 64.6489 25.2839 61.1658 23.2467C60.4246 22.813 59.5322 22.6426 58.5899 22.419L57.0716 22.3268C56.7635 22.198 56.4419 21.82 56.1517 21.6368C54.9973 20.9078 52.0376 19.3222 51.183 21.4075C50.6436 22.7233 51.9902 24.0071 52.4713 24.674C52.8089 25.1417 53.2419 25.6657 53.4835 26.1917C53.6423 26.5376 53.6692 26.8842 53.8057 27.25C54.1395 28.1507 54.4309 29.1315 54.8634 29.9637C55.0818 30.3852 55.3233 30.8292 55.5995 31.2058C55.7686 31.4365 56.0594 31.539 56.1049 31.8958C55.8211 32.293 55.8044 32.9105 55.6449 33.4134C54.9262 35.6806 55.1971 38.4987 56.2433 40.1765C56.5642 40.6922 57.3202 41.7967 58.3593 41.3726C59.2683 41.0023 59.0659 39.8549 59.326 38.8421C59.3849 38.6134 59.3484 38.4443 59.4637 38.2905V38.3366L60.292 39.9927C60.9051 40.9799 61.9922 42.0106 62.9141 42.707C63.392 43.0677 63.7687 43.6923 64.3863 43.903V43.8563H64.3408C64.2203 43.6698 64.0339 43.593 63.8802 43.4424C63.5201 43.0894 63.1197 42.6512 62.8225 42.2464C61.9839 41.1086 61.2434 39.8626 60.5681 38.566C60.2459 37.9471 59.9659 37.2642 59.6943 36.6339C59.5893 36.3911 59.5905 36.0233 59.3727 35.8984C59.0742 36.3597 58.6367 36.7332 58.406 37.2783C58.0383 38.1496 57.9909 39.2124 57.8544 40.3142L57.7622 40.3597C57.1209 40.2053 56.8961 39.5455 56.6578 38.9798C56.0556 37.5493 55.9435 35.245 56.4739 33.5979C56.611 33.1713 57.2305 31.8292 56.9794 31.4352C56.8596 31.0425 56.4643 30.8157 56.2439 30.5146C55.9548 30.1117 55.7081 29.68 55.5078 29.2263C55.0146 28.111 54.7846 26.8586 54.2663 25.7304C54.0177 25.191 53.5988 24.6458 53.2541 24.1667C52.8729 23.6349 52.4457 23.2442 52.1497 22.6023C52.0446 22.3742 51.9018 22.0084 52.0574 21.7739C52.1068 21.6157 52.1779 21.5497 52.3342 21.4978C52.6007 21.2922 53.3438 21.5664 53.6218 21.6817C54.3598 21.9885 54.9755 22.28 55.6007 22.6939C55.9005 22.8931 56.2036 23.2775 56.5668 23.3838H56.9806C57.6283 23.5324 58.3541 23.4293 58.9589 23.6132C60.0287 23.9386 60.9871 24.444 61.8571 24.9937C64.5086 26.6683 66.6759 29.0514 68.1595 31.8945C68.3979 32.3526 68.5016 32.7888 68.7111 33.2744C69.1352 34.2533 69.6695 35.261 70.091 36.2187C70.5119 37.1739 70.9226 38.138 71.5177 38.9331C71.8303 39.3507 73.0385 39.575 73.5876 39.8069C73.9726 39.9696 74.603 40.1394 74.9675 40.3585C75.6638 40.7787 76.339 41.279 76.9918 41.739C77.3179 41.9709 78.3218 42.4751 78.3717 42.8908ZM57.8083 25.364C57.5294 25.3594 57.2511 25.3904 56.98 25.4562V25.5017H57.0261C57.1869 25.8329 57.4707 26.0456 57.67 26.33L58.1306 27.2961L58.176 27.2506C58.4611 27.0501 58.5912 26.7292 58.5899 26.2384C58.4752 26.118 58.4586 25.9675 58.3599 25.8246C58.2292 25.6324 57.9742 25.5248 57.8083 25.364Z" fill="#676F73"/>
</svg>
