<svg width="79" height="48" viewBox="0 0 79 48" fill="none" xmlns="http://www.w3.org/2000/svg">
<g clip-path="url(#clip0_660_1525)">
<path d="M39.0541 47.862C38.7867 47.862 38.537 47.7913 38.3051 47.6677L35.9334 46.272C35.5767 46.0776 35.7551 46.0069 35.8621 45.9716C36.3435 45.8126 36.4327 45.7772 36.932 45.4947C36.9856 45.4592 37.057 45.4769 37.1104 45.5123L38.9294 46.59C39.0007 46.6253 39.0899 46.6253 39.1433 46.59L46.2587 42.5087C46.3299 42.4734 46.3657 42.4027 46.3657 42.3144V34.1697C46.3657 34.0812 46.3299 34.0108 46.2587 33.9753L39.1433 29.9118C39.072 29.8763 38.9828 29.8763 38.9294 29.9118L31.814 33.9753C31.7427 34.0106 31.7069 34.099 31.7069 34.1696V42.3143C31.7069 42.3851 31.7427 42.4733 31.814 42.5087L33.7578 43.6218C34.81 44.1517 35.4698 43.5334 35.4698 42.9151V34.8763C35.4698 34.7703 35.5589 34.6643 35.6838 34.6643H36.5932C36.7003 34.6643 36.8072 34.7526 36.8072 34.8763V42.9151C36.8072 44.3107 36.0404 45.1235 34.7029 45.1235C34.2928 45.1235 33.9718 45.1235 33.0623 44.6817L31.1899 43.6218C30.7262 43.3568 30.4409 42.862 30.4409 42.332V34.1873C30.4409 33.6573 30.7262 33.1625 31.1899 32.8976L38.3051 28.8164C38.751 28.569 39.3574 28.569 39.8032 28.8164L46.9184 32.8976C47.3821 33.1625 47.6675 33.6573 47.6675 34.1873V42.332C47.6675 42.862 47.3821 43.3568 46.9184 43.6218L39.8032 47.703C39.5713 47.8091 39.3037 47.862 39.0541 47.862ZM41.2476 42.2614C38.1269 42.2614 37.4849 40.848 37.4849 39.6466C37.4849 39.5405 37.5741 39.4346 37.6989 39.4346H38.6262C38.7331 39.4346 38.8223 39.5052 38.8223 39.6113C38.965 40.5476 39.3752 41.007 41.2655 41.007C42.7634 41.007 43.4056 40.6713 43.4056 39.8762C43.4056 39.4169 43.227 39.0813 40.891 38.8516C38.9472 38.6571 37.7345 38.2332 37.7345 36.6962C37.7345 35.265 38.9473 34.4169 40.9802 34.4169C43.2627 34.4169 44.3863 35.1944 44.529 36.8903C44.529 36.9435 44.5111 36.9964 44.4755 37.0494C44.4397 37.0847 44.3863 37.1201 44.3327 37.1201H43.4054C43.3162 37.1201 43.227 37.0494 43.2093 36.9611C42.9953 35.9895 42.4424 35.6713 40.9802 35.6713C39.3395 35.6713 39.1433 36.2368 39.1433 36.6607C39.1433 37.1731 39.3752 37.3321 41.5864 37.6147C43.7799 37.8975 44.8143 38.3039 44.8143 39.8232C44.7964 41.378 43.5125 42.2614 41.2476 42.2614Z" fill="#676F73"/>
<path d="M16.977 16.007C16.977 15.689 16.7986 15.3885 16.5133 15.2295L8.95215 10.9187C8.82717 10.8479 8.6846 10.8126 8.54203 10.7948H8.47059C8.32802 10.7948 8.1853 10.8479 8.06047 10.9187L0.499307 15.2295C0.213857 15.3885 0.0356445 15.6889 0.0356445 16.007L0.053543 27.5968C0.053543 27.7558 0.142727 27.9148 0.285297 27.9856C0.428021 28.0739 0.606234 28.0739 0.731215 27.9856L5.22511 25.4414C5.51041 25.2824 5.68877 24.982 5.68877 24.6641V19.2401C5.68877 18.9221 5.86699 18.6217 6.15244 18.4628L8.06047 17.3673C8.2032 17.279 8.36366 17.2435 8.52413 17.2435C8.6846 17.2435 8.84507 17.279 8.97005 17.3673L10.8781 18.4628C11.1635 18.6217 11.3417 18.922 11.3417 19.2401V24.6641C11.3417 24.982 11.5201 25.2824 11.8054 25.4414L16.2993 27.9856C16.3687 28.0289 16.4491 28.0518 16.5311 28.0518C16.6132 28.0518 16.6935 28.0289 16.763 27.9856C16.9057 27.9148 16.9949 27.7558 16.9949 27.5968L16.977 16.007ZM53.3205 0.0530828C53.178 -0.0176943 52.9996 -0.0176943 52.8746 0.0530828C52.732 0.141439 52.6429 0.282688 52.6429 0.441669V11.9257C52.6429 12.0317 52.5895 12.1376 52.4824 12.2084C52.3755 12.2613 52.2684 12.2613 52.1614 12.2084L50.2712 11.1307C50.1326 11.0525 49.9758 11.0114 49.8164 11.0114C49.6569 11.0114 49.5002 11.0525 49.3616 11.1307L41.8004 15.4592C41.5151 15.6182 41.3368 15.9186 41.3368 16.2366V24.876C41.3368 25.1939 41.5151 25.4945 41.8004 25.6534L49.3616 29.982C49.5002 30.0602 49.6569 30.1013 49.8164 30.1013C49.9758 30.1013 50.1326 30.0602 50.2712 29.982L57.8323 25.6534C58.1176 25.4945 58.296 25.1941 58.296 24.876V3.33925C58.296 3.00355 58.1176 2.70332 57.8323 2.54419L53.3205 0.0530828ZM52.6251 22.0316C52.6251 22.1199 52.5895 22.1906 52.518 22.2259L49.9323 23.7099C49.8962 23.7274 49.8566 23.7364 49.8164 23.7364C49.7762 23.7364 49.7365 23.7274 49.7004 23.7099L47.1147 22.2259C47.0433 22.1906 47.0076 22.1022 47.0076 22.0316V19.0634C47.0076 18.975 47.0433 18.9044 47.1147 18.8691L49.7004 17.3849C49.7365 17.3674 49.7762 17.3584 49.8164 17.3584C49.8566 17.3584 49.8962 17.3674 49.9323 17.3849L52.518 18.8691C52.5895 18.9042 52.6251 18.9928 52.6251 19.0634V22.0316ZM78.4828 18.9928C78.7682 18.8338 78.9287 18.5334 78.9287 18.2153V16.1129C78.9287 15.7949 78.7504 15.4946 78.4828 15.3356L70.9752 11.0248C70.8366 10.9466 70.6799 10.9055 70.5204 10.9055C70.3609 10.9055 70.2042 10.9466 70.0656 11.0248L62.5044 15.3532C62.219 15.5121 62.0408 15.8125 62.0408 16.1305V24.77C62.0408 25.088 62.2191 25.3884 62.5044 25.5473L70.0121 29.7876C70.2975 29.9465 70.6363 29.9465 70.9039 29.7876L75.4512 27.279C75.5939 27.2082 75.6831 27.0493 75.6831 26.8903C75.6831 26.7313 75.5939 26.5723 75.4512 26.5015L67.8544 22.173C67.7116 22.0846 67.6225 21.9434 67.6225 21.7844V19.0813C67.6225 18.9223 67.7116 18.7633 67.8544 18.6925L70.2261 17.3497C70.2955 17.3065 70.3759 17.2835 70.4579 17.2835C70.5399 17.2835 70.6203 17.3065 70.6897 17.3497L73.0616 18.6925C73.2043 18.7809 73.2933 18.9221 73.2933 19.0813V21.2014C73.2933 21.3603 73.3825 21.5193 73.5252 21.5899C73.5947 21.6333 73.675 21.6562 73.7571 21.6562C73.8391 21.6562 73.9195 21.6333 73.9889 21.5899L78.4828 18.9928Z" fill="#333333"/>
<path d="M70.4046 18.5861C70.4311 18.5688 70.4621 18.5596 70.4938 18.5596C70.5255 18.5596 70.5565 18.5688 70.583 18.5861L72.0275 19.4164C72.0809 19.4519 72.1166 19.5048 72.1166 19.5754V21.2363C72.1166 21.3069 72.0811 21.36 72.0275 21.3953L70.583 22.2257C70.5565 22.243 70.5255 22.2522 70.4938 22.2522C70.4621 22.2522 70.4311 22.243 70.4046 22.2257L68.9603 21.3953C68.9067 21.36 68.8711 21.3069 68.8711 21.2363V19.5756C68.8711 19.5048 68.9066 19.4518 68.9603 19.4166L70.4046 18.5861Z" fill="#676F73"/>
<path d="M29.6203 11.0597C29.4817 10.9815 29.325 10.9404 29.1656 10.9404C29.0061 10.9404 28.8494 10.9815 28.7109 11.0597L21.2032 15.3526C20.9178 15.5116 20.7573 15.812 20.7573 16.1299V24.7342C20.7573 25.0521 20.9357 25.3525 21.2032 25.5115L28.7109 29.8047C28.8494 29.8829 29.0061 29.924 29.1656 29.924C29.325 29.924 29.4817 29.8829 29.6203 29.8047L37.1281 25.5115C37.4134 25.3525 37.574 25.0521 37.574 24.7342V16.1301C37.574 15.8121 37.3955 15.5117 37.1281 15.3528L29.6203 11.0597Z" fill="#676F73"/>
</g>
<defs>
<clipPath id="clip0_660_1525">
<rect width="79" height="48" fill="white"/>
</clipPath>
</defs>
</svg>
