<svg width="674" height="510" viewBox="0 0 674 510" fill="none" xmlns="http://www.w3.org/2000/svg">
<path d="M475.059 112.361C474.866 112.579 474.6 112.72 474.312 112.759L468.94 112.707C468.277 112.725 467.634 112.939 467.093 113.322C466.551 113.706 466.136 114.241 465.9 114.861C465.9 114.861 465.663 115.533 465.403 116.564C465.143 117.594 465.034 118.298 465.034 118.298C464.832 119.6 465.556 121.04 466.72 121.649L471.457 124.131C471.711 124.324 471.882 124.605 471.936 124.919L472.204 126.752C472.221 127.042 472.136 127.328 471.962 127.56L468.146 131.301C467.19 132.236 466.939 133.835 467.597 135.091L469.326 137.977C470.057 139.051 471.639 139.599 472.88 139.212L478.145 137.602C478.431 137.602 478.717 137.712 478.879 137.841L480.365 138.938C480.582 139.133 480.723 139.398 480.764 139.686L480.712 145.031C480.7 146.347 481.624 147.667 482.865 148.099C482.865 148.099 483.538 148.336 484.568 148.596C485.599 148.856 486.303 148.965 486.303 148.965C486.378 148.977 486.679 149 486.754 149C487.346 148.993 487.925 148.83 488.434 148.528C488.944 148.226 489.365 147.796 489.655 147.28L492.138 142.543C492.33 142.289 492.612 142.118 492.926 142.064L494.84 141.787C495.128 141.787 495.469 141.937 495.564 142.035L499.305 145.851C500.215 146.78 501.748 147.112 503.096 146.399L505.98 144.671C507.082 143.92 507.616 142.39 507.218 141.117L505.625 136.017C505.582 135.7 505.663 135.379 505.85 135.12L506.947 133.633C507.14 133.416 507.406 133.274 507.694 133.235L513.067 133.287C513.73 133.269 514.372 133.055 514.914 132.672C515.455 132.289 515.87 131.753 516.106 131.134C516.106 131.134 516.343 130.461 516.603 129.431C516.863 128.4 516.972 127.696 516.972 127.696C517.058 127.033 516.943 126.36 516.643 125.762C516.342 125.165 515.87 124.671 515.286 124.345L510.549 121.863C510.295 121.67 510.124 121.389 510.07 121.075L509.805 119.248C509.788 118.958 509.873 118.672 510.047 118.44L513.863 114.699C514.819 113.764 515.07 112.165 514.412 110.909L512.683 108.023C511.952 106.952 510.373 106.398 509.129 106.785L503.861 108.395C503.597 108.395 503.34 108.311 503.127 108.156L501.641 107.059C501.424 106.864 501.283 106.599 501.242 106.311L501.294 100.966C501.283 100.298 501.072 99.6484 500.688 99.1015C500.304 98.5546 499.765 98.1353 499.141 97.8976C499.141 97.8976 498.468 97.661 497.438 97.4012C496.407 97.1414 495.703 97.0317 495.703 97.0317C495.553 97.0169 495.403 97.0063 495.252 97C494.66 97.0074 494.081 97.1702 493.572 97.4721C493.062 97.774 492.642 98.2044 492.351 98.7202L489.869 103.457C489.676 103.711 489.394 103.882 489.08 103.936L487.167 104.21C486.905 104.204 486.652 104.118 486.442 103.962L482.701 100.146C482.212 99.6596 481.579 99.3436 480.896 99.2448C480.214 99.1461 479.517 99.2698 478.91 99.5977L476.024 101.324C474.921 102.074 474.387 103.604 474.785 104.877L476.379 109.977C476.421 110.294 476.341 110.615 476.154 110.875L475.059 112.361ZM477.427 114.012L478.417 112.667C479.19 111.752 479.491 110.26 479.133 109.12L477.542 104.022C477.528 103.942 477.591 103.76 477.577 103.757L480.313 102.117L480.64 102.167L484.384 105.982C485.048 106.658 486.142 107.096 487.169 107.096C487.367 107.099 487.565 107.081 487.758 107.042L489.418 106.796C490.042 106.721 490.639 106.5 491.162 106.152C491.684 105.804 492.119 105.339 492.429 104.793L494.909 100.06C494.998 99.9594 495.122 99.8965 495.255 99.8834C495.287 99.8863 495.876 99.9845 496.736 100.198C497.594 100.415 498.159 100.608 498.185 100.619C498.275 100.657 498.405 100.845 498.41 100.937L498.359 106.282C498.347 107.477 499.066 108.819 499.995 109.426L501.338 110.416C502.23 111.169 503.76 111.486 504.885 111.131L510.007 109.538C510.128 109.538 510.264 109.613 510.246 109.576L511.886 112.312C511.918 112.387 511.886 112.577 511.837 112.638L508.021 116.382C507.169 117.222 506.727 118.676 506.961 119.756L507.204 121.415C507.307 122.605 508.15 123.872 509.21 124.426L513.944 126.905C514.043 126.995 514.106 127.118 514.12 127.252C514.036 127.749 513.931 128.243 513.806 128.732C513.686 129.221 513.545 129.704 513.384 130.181C513.347 130.271 513.159 130.401 513.067 130.406L507.691 130.354C506.505 130.354 505.177 131.073 504.577 131.991L503.589 133.333C503.2 133.826 502.932 134.405 502.807 135.021C502.683 135.637 502.706 136.274 502.873 136.88L504.464 141.978C504.478 142.056 504.415 142.24 504.429 142.243L501.693 143.883L501.367 143.833L497.622 140.018C496.958 139.342 495.864 138.904 494.837 138.904C494.639 138.901 494.441 138.919 494.248 138.958L492.588 139.204C491.964 139.279 491.367 139.5 490.845 139.848C490.322 140.196 489.888 140.661 489.577 141.207L487.097 145.94C487.008 146.041 486.884 146.103 486.751 146.117C486.253 146.032 485.759 145.927 485.27 145.802C484.781 145.682 484.298 145.542 483.821 145.381C483.731 145.343 483.601 145.155 483.596 145.063L483.648 139.718C483.659 138.523 482.94 137.181 482.011 136.574L480.668 135.584C480.174 135.194 479.596 134.926 478.979 134.802C478.362 134.678 477.724 134.7 477.118 134.869L471.997 136.462C471.872 136.462 471.737 136.395 471.757 136.424L470.117 133.688C470.086 133.613 470.117 133.423 470.166 133.362L473.983 129.618C474.834 128.778 475.276 127.324 475.042 126.244L474.8 124.587C474.724 123.964 474.503 123.367 474.155 122.844C473.806 122.321 473.34 121.887 472.793 121.577L468.059 119.098C467.96 119.008 467.897 118.884 467.883 118.751C467.886 118.72 467.984 118.131 468.198 117.271C468.414 116.413 468.608 115.848 468.619 115.822C468.657 115.732 468.844 115.602 468.937 115.597L474.312 115.649C475.498 115.649 476.826 114.93 477.427 114.012Z" fill="#5759F3"/>
<path d="M491.003 131.659C495.777 131.659 499.663 127.774 499.663 123C499.663 118.226 495.777 114.341 491.003 114.341C486.228 114.341 482.342 118.226 482.342 123C482.342 127.774 486.228 131.659 491.003 131.659ZM491.003 117.227C494.187 117.227 496.776 119.816 496.776 123C496.776 126.183 494.187 128.772 491.003 128.772C487.818 128.772 485.229 126.183 485.229 123C485.229 119.816 487.818 117.227 491.003 117.227Z" fill="#5759F3"/>
<path d="M379.506 144.313C379.111 144.756 378.57 145.044 377.982 145.125L367.031 145.019C365.679 145.055 364.369 145.491 363.266 146.272C362.162 147.054 361.316 148.145 360.834 149.408C360.834 149.408 360.352 150.779 359.822 152.879C359.292 154.98 359.069 156.416 359.069 156.416C358.657 159.069 360.134 162.005 362.505 163.246L372.162 168.306C372.679 168.699 373.029 169.273 373.139 169.913L373.686 173.649C373.721 174.239 373.546 174.823 373.192 175.296L365.412 182.921C363.464 184.828 362.953 188.087 364.294 190.647L367.819 196.53C369.308 198.719 372.533 199.837 375.063 199.049L385.796 195.765C386.379 195.765 386.962 195.989 387.291 196.254L390.322 198.49C390.763 198.887 391.05 199.426 391.134 200.013L391.028 210.91C391.004 213.593 392.887 216.282 395.418 217.164C395.418 217.164 396.789 217.647 398.89 218.176C400.99 218.706 402.426 218.929 402.426 218.929C402.579 218.953 403.191 219 403.344 219C404.551 218.985 405.732 218.653 406.77 218.038C407.808 217.422 408.666 216.545 409.258 215.493L414.319 205.838C414.711 205.321 415.285 204.972 415.925 204.862L419.827 204.297C420.415 204.297 421.11 204.603 421.304 204.803L428.93 212.581C430.784 214.475 433.909 215.152 436.657 213.699L442.535 210.175C444.783 208.645 445.872 205.526 445.06 202.932L441.811 192.535C441.725 191.889 441.889 191.234 442.271 190.705L444.507 187.675C444.902 187.232 445.442 186.944 446.031 186.863L456.982 186.969C458.333 186.934 459.644 186.497 460.747 185.716C461.85 184.934 462.696 183.843 463.178 182.58C463.178 182.58 463.661 181.209 464.19 179.109C464.72 177.008 464.944 175.573 464.944 175.573C465.118 174.221 464.884 172.848 464.272 171.631C463.66 170.413 462.697 169.407 461.507 168.742L451.851 163.682C451.333 163.29 450.984 162.716 450.874 162.076L450.332 158.351C450.298 157.761 450.473 157.177 450.827 156.704L458.606 149.079C460.554 147.172 461.066 143.913 459.724 141.353L456.199 135.47C454.71 133.287 451.492 132.157 448.955 132.946L438.216 136.229C437.679 136.228 437.155 136.057 436.721 135.74L433.691 133.505C433.25 133.108 432.962 132.568 432.879 131.981L432.985 121.084C432.962 119.722 432.532 118.399 431.749 117.284C430.967 116.169 429.868 115.314 428.595 114.83C428.595 114.83 427.224 114.347 425.123 113.818C423.022 113.288 421.586 113.065 421.586 113.065C421.281 113.034 420.975 113.013 420.668 113C419.462 113.015 418.28 113.347 417.242 113.962C416.204 114.578 415.346 115.455 414.754 116.507L409.694 126.162C409.301 126.679 408.727 127.028 408.087 127.138L404.186 127.697C403.653 127.686 403.137 127.509 402.709 127.191L395.082 119.413C394.085 118.422 392.796 117.777 391.404 117.576C390.012 117.375 388.593 117.627 387.356 118.295L381.471 121.814C379.223 123.343 378.135 126.462 378.947 129.057L382.195 139.453C382.282 140.099 382.118 140.754 381.736 141.283L379.506 144.313ZM384.331 147.678L386.35 144.937C387.927 143.071 388.539 140.03 387.809 137.705L384.567 127.315C384.537 127.15 384.667 126.78 384.637 126.774L390.216 123.432L390.881 123.532L398.513 131.31C399.866 132.687 402.097 133.581 404.192 133.581C404.595 133.587 404.997 133.55 405.392 133.469L408.776 132.969C410.046 132.815 411.264 132.365 412.329 131.656C413.395 130.947 414.28 129.998 414.913 128.886L419.968 119.237C420.15 119.033 420.402 118.905 420.674 118.878C420.739 118.884 421.939 119.084 423.693 119.519C425.441 119.96 426.594 120.355 426.647 120.378C426.829 120.455 427.094 120.837 427.106 121.025L427 131.922C426.977 134.358 428.442 137.094 430.337 138.329L433.073 140.347C434.891 141.883 438.01 142.53 440.305 141.806L450.744 138.559C450.991 138.559 451.268 138.712 451.233 138.635L454.575 144.213C454.64 144.366 454.575 144.754 454.475 144.878L446.696 152.509C444.96 154.221 444.059 157.186 444.536 159.387L445.03 162.77C445.242 165.194 446.96 167.777 449.12 168.907L458.771 173.961C458.973 174.144 459.101 174.395 459.13 174.667C458.957 175.681 458.743 176.688 458.488 177.685C458.244 178.681 457.958 179.667 457.629 180.639C457.553 180.821 457.17 181.086 456.982 181.097L446.025 180.992C443.606 180.992 440.899 182.457 439.675 184.328L437.663 187.064C436.868 188.069 436.322 189.248 436.069 190.505C435.815 191.761 435.861 193.059 436.203 194.295L439.446 204.685C439.475 204.844 439.346 205.22 439.375 205.226L433.797 208.568L433.132 208.468L425.499 200.69C424.146 199.313 421.916 198.419 419.821 198.419C419.418 198.413 419.015 198.45 418.62 198.531L415.237 199.031C413.966 199.185 412.749 199.635 411.683 200.344C410.617 201.053 409.732 202.002 409.099 203.114L404.044 212.763C403.862 212.967 403.61 213.096 403.338 213.122C402.324 212.95 401.317 212.736 400.319 212.481C399.323 212.237 398.337 211.95 397.365 211.622C397.183 211.545 396.918 211.163 396.906 210.975L397.012 200.078C397.036 197.642 395.571 194.906 393.676 193.671L390.939 191.653C389.933 190.858 388.753 190.312 387.495 190.058C386.237 189.805 384.938 189.851 383.701 190.194L373.262 193.441C373.009 193.441 372.733 193.306 372.774 193.365L369.431 187.787C369.367 187.634 369.431 187.246 369.531 187.122L377.311 179.491C379.047 177.779 379.947 174.814 379.47 172.613L378.976 169.236C378.822 167.965 378.371 166.747 377.661 165.681C376.951 164.616 376.001 163.731 374.886 163.099L365.236 158.045C365.033 157.862 364.906 157.611 364.877 157.339C364.883 157.275 365.083 156.074 365.518 154.321C365.96 152.573 366.354 151.42 366.377 151.367C366.454 151.185 366.836 150.92 367.025 150.908L377.982 151.014C380.4 151.014 383.107 149.549 384.331 147.678Z" fill="#5759F3"/>
<path d="M412.005 183.651C421.738 183.651 429.659 175.731 429.659 166C429.659 156.268 421.738 148.349 412.005 148.349C402.272 148.349 394.352 156.268 394.352 166C394.352 175.731 402.272 183.651 412.005 183.651ZM412.005 154.232C418.496 154.232 423.774 159.51 423.774 166C423.774 172.489 418.496 177.767 412.005 177.767C405.515 177.767 400.236 172.489 400.236 166C400.236 159.51 405.515 154.232 412.005 154.232Z" fill="#5759F3"/>
<ellipse cx="336.822" cy="254.507" rx="299.615" ry="183.203" transform="rotate(-15 336.822 254.507)" stroke="#485359" stroke-width="2" stroke-dasharray="25 25"/>
<circle cx="626" cy="239" r="24.5" fill="white" stroke="#5D5FEF"/>
<path d="M626 222.333C616.81 222.333 609.333 229.81 609.333 239V245.905C609.333 247.611 610.828 249 612.667 249H614.333C614.776 249 615.199 248.824 615.512 248.512C615.825 248.199 616 247.775 616 247.333V238.761C616 238.319 615.825 237.895 615.512 237.583C615.199 237.27 614.776 237.095 614.333 237.095H612.82C613.747 230.645 619.297 225.666 626 225.666C632.703 225.666 638.253 230.645 639.18 237.095H637.667C637.225 237.095 636.801 237.27 636.488 237.583C636.176 237.895 636 238.319 636 238.761V249C636 250.838 634.505 252.333 632.667 252.333H629.333V250.666H622.667V255.666H632.667C636.343 255.666 639.333 252.676 639.333 249C641.172 249 642.667 247.611 642.667 245.905V239C642.667 229.81 635.19 222.333 626 222.333Z" fill="#5D5FEF"/>
<circle cx="162" cy="130" r="24.5" fill="white" stroke="#5D5FEF"/>
<path fill-rule="evenodd" clip-rule="evenodd" d="M162.667 137.5H164.917C170.67 137.5 175.333 132.837 175.333 127.083C175.333 121.33 170.67 116.667 164.917 116.667H159.083C153.33 116.667 148.667 121.33 148.667 127.083C148.667 133.8 152.497 137.817 156.525 140.238C158.547 141.453 160.583 142.238 162.122 142.719C162.312 142.778 162.494 142.833 162.667 142.883V137.5ZM164.333 145C164.333 145 163.697 144.892 162.667 144.614C158.325 143.437 147 139.208 147 127.083C147 120.41 152.41 115 159.083 115H164.917C171.59 115 177 120.41 177 127.083C177 133.757 171.59 139.167 164.917 139.167H164.333V145Z" fill="#5D5FEF"/>
<path fill-rule="evenodd" clip-rule="evenodd" d="M165.076 120.401C165.934 120.971 166.581 121.896 166.581 123.135C166.581 124.45 166.051 125.416 165.192 126.008C164.852 126.238 164.478 126.411 164.083 126.52V127.796C164.083 128.128 163.952 128.446 163.717 128.68C163.483 128.915 163.165 129.046 162.833 129.046C162.502 129.046 162.184 128.915 161.949 128.68C161.715 128.446 161.583 128.128 161.583 127.796V125.466C161.583 125.148 161.704 124.843 161.92 124.611C162.137 124.38 162.433 124.239 162.75 124.218C163.212 124.187 163.562 124.096 163.772 123.95C163.858 123.893 163.927 123.815 163.972 123.723C164.022 123.623 164.081 123.445 164.081 123.134C164.081 122.873 163.979 122.674 163.692 122.482C163.365 122.266 162.84 122.106 162.209 122.086C161.586 122.066 160.98 122.187 160.534 122.403C160.087 122.62 159.923 122.863 159.877 123.042C159.837 123.201 159.765 123.351 159.666 123.482C159.568 123.613 159.444 123.724 159.303 123.807C159.162 123.891 159.005 123.946 158.843 123.969C158.68 123.992 158.515 123.983 158.356 123.942C158.197 123.901 158.047 123.83 157.916 123.731C157.785 123.633 157.674 123.509 157.591 123.368C157.507 123.227 157.452 123.07 157.429 122.908C157.406 122.745 157.415 122.58 157.456 122.421C157.743 121.303 158.579 120.573 159.444 120.154C160.311 119.733 161.33 119.556 162.288 119.586C163.241 119.616 164.257 119.856 165.076 120.401Z" fill="#5D5FEF"/>
<circle cx="486" cy="394" r="24.5" fill="white" stroke="#5D5FEF"/>
<path d="M492.25 377.75C486.713 377.75 482.25 382.213 482.25 387.75C482.25 388.044 482.296 388.441 482.329 388.805L471.625 399.508C471.041 400.088 470.577 400.779 470.26 401.54C469.943 402.301 469.78 403.117 469.78 403.941C469.78 404.765 469.943 405.582 470.26 406.342C470.577 407.103 471.041 407.794 471.625 408.375C472.206 408.96 472.897 409.424 473.658 409.74C474.419 410.057 475.235 410.22 476.059 410.22C476.883 410.22 477.699 410.057 478.46 409.74C479.221 409.424 479.912 408.96 480.493 408.375L491.195 397.671C491.558 397.704 491.958 397.75 492.25 397.75C497.788 397.75 502.25 393.288 502.25 387.75C502.257 386.139 501.853 384.552 501.078 383.14L500.296 381.695L499.125 382.868L493.734 388.218L491.781 386.265L497.131 380.875L498.306 379.703L496.86 378.921C495.447 378.147 493.861 377.744 492.25 377.75ZM492.25 380.25C492.858 380.25 493.31 380.513 493.85 380.641L489.125 385.366L488.225 386.266L489.125 387.125L492.875 390.875L493.735 391.775L494.633 390.875L499.36 386.15C499.489 386.69 499.75 387.143 499.75 387.75C499.75 391.963 496.463 395.25 492.25 395.25C491.75 395.25 491.35 395.25 491.038 395.171L490.375 394.976L489.868 395.485L478.734 406.619C477.196 408.156 474.921 408.156 473.384 406.619L473.344 406.579C471.844 405.041 471.856 402.791 473.381 401.266L484.515 390.134L485.024 389.626L484.826 388.964C484.751 388.651 484.749 388.251 484.749 387.751C484.749 383.539 488.036 380.251 492.249 380.251L492.25 380.25Z" fill="#5D5FEF"/>
<circle cx="564" cy="96" r="24.5" fill="white" stroke="#5D5FEF"/>
<path d="M563.996 79C564.018 79 564.039 79.0085 564.056 79.0237L575.966 89.9602C575.98 89.9731 575.989 89.9899 575.994 90.0086C575.998 90.0272 575.997 90.0468 575.99 90.0648C575.984 90.0826 575.972 90.0979 575.957 90.1088C575.942 90.1196 575.924 90.1254 575.905 90.1254H552.093C552.074 90.1254 552.056 90.1196 552.041 90.1088C552.026 90.0979 552.014 90.0826 552.008 90.0648C552.001 90.0468 552 90.0272 552.005 90.0086C552.009 89.9899 552.019 89.9731 552.032 89.9602L563.938 79.0237C563.954 79.0092 563.974 79.0008 563.996 79ZM575.664 89.9365L563.996 79.2215L552.338 89.9365H575.664Z" fill="#5759F3" stroke="#5D5FEF" stroke-miterlimit="10"/>
<path d="M575.908 89.9356C575.921 89.9355 575.934 89.9385 575.946 89.9444C575.962 89.9518 575.976 89.9642 575.986 89.9798C575.995 89.9954 576 90.0137 576 90.0323V111.903C576 111.922 575.995 111.94 575.986 111.956C575.976 111.972 575.962 111.984 575.946 111.991C575.93 111.999 575.912 112.001 575.894 111.998C575.877 111.996 575.861 111.988 575.848 111.975L563.937 101.039C563.928 101.03 563.92 101.019 563.915 101.007C563.909 100.995 563.907 100.982 563.907 100.969C563.907 100.955 563.909 100.942 563.915 100.93C563.92 100.918 563.928 100.907 563.937 100.898L575.844 89.9593C575.861 89.9434 575.885 89.9349 575.908 89.9356ZM575.817 111.692V90.2406L564.14 100.963L575.817 111.692Z" fill="#5759F3" stroke="#5D5FEF" stroke-miterlimit="10"/>
<path d="M552.092 89.9356C552.114 89.9359 552.136 89.9443 552.152 89.9594L564.059 100.897C564.068 100.906 564.076 100.916 564.081 100.928C564.086 100.941 564.089 100.954 564.089 100.967C564.089 100.98 564.086 100.993 564.081 101.006C564.076 101.018 564.068 101.029 564.059 101.037L552.152 111.974C552.139 111.986 552.123 111.994 552.106 111.997C552.088 112 552.07 111.997 552.054 111.99C552.038 111.982 552.024 111.97 552.014 111.954C552.005 111.939 552 111.92 552 111.902V90.0306C552 90.012 552.005 89.9937 552.014 89.9781C552.024 89.9625 552.038 89.9501 552.054 89.9427C552.066 89.9374 552.079 89.935 552.092 89.9356ZM563.86 100.967L552.183 90.2441V111.693L563.86 100.967Z" fill="#5759F3" stroke="#5D5FEF" stroke-miterlimit="10"/>
<path d="M567.928 82.5674C567.944 82.5675 567.96 82.5718 567.974 82.5799C567.988 82.5881 567.999 82.5998 568.008 82.614C568.016 82.6283 568.02 82.6445 568.02 82.661C568.02 82.6775 568.016 82.6937 568.008 82.708L564.079 89.9565L575.982 111.857L575.822 111.95L563.976 90.1525L552.169 111.95L552.009 111.862L563.871 89.9618L559.951 82.7476C559.943 82.7333 559.939 82.7171 559.939 82.7005C559.939 82.684 559.943 82.6678 559.951 82.6535C559.959 82.6393 559.97 82.6275 559.984 82.6192C559.998 82.6109 560.013 82.6064 560.029 82.6061L567.926 82.5727L567.928 82.5674ZM563.978 89.7631L567.772 82.7572L560.188 82.7898L563.978 89.7631Z" fill="#5759F3" stroke="#5D5FEF" stroke-miterlimit="10"/>
<circle cx="358" cy="60" r="24.5" fill="white" stroke="#5D5FEF"/>
<g clip-path="url(#clip0_751_1545)">
<path d="M346.214 73.9287H369.785C370.969 73.9287 371.928 72.9693 371.928 71.7859V48.2144C371.928 47.031 370.969 46.0716 369.785 46.0716H346.214C345.03 46.0716 344.071 47.031 344.071 48.2144V71.7859C344.071 72.9693 345.03 73.9287 346.214 73.9287Z" stroke="#5D5FEF" stroke-linecap="round" stroke-linejoin="round"/>
<path d="M349.428 51.4287H353.714M349.428 56.7859H359.071M367.643 56.7859L361.214 67.5001L353.714 63.2144L349.428 69.643" stroke="#5D5FEF" stroke-linecap="round" stroke-linejoin="round"/>
</g>
<circle cx="46" cy="303" r="24.5" fill="white" stroke="#5D5FEF"/>
<path fill-rule="evenodd" clip-rule="evenodd" d="M34 294.375C34 293.48 34.3556 292.621 34.9885 291.989C35.6214 291.356 36.4799 291 37.375 291H54.625C55.5201 291 56.3785 291.356 57.0115 291.989C57.6444 292.621 58 293.48 58 294.375V307.125C58 308.02 57.6444 308.879 57.0115 309.511C56.3785 310.144 55.5201 310.5 54.625 310.5H49.9675C50.2604 311.481 50.834 312.356 51.6175 313.015C51.7938 313.164 51.92 313.364 51.9791 313.587C52.0382 313.81 52.0273 314.046 51.9479 314.262C51.8685 314.479 51.7244 314.666 51.5352 314.798C51.3459 314.93 51.1207 315 50.89 315H41.11C40.8794 315 40.6544 314.929 40.4654 314.797C40.2764 314.665 40.1326 314.478 40.0533 314.262C39.9741 314.045 39.9634 313.809 40.0225 313.586C40.0816 313.364 40.2078 313.164 40.384 313.015C41.167 312.356 41.74 311.481 42.0325 310.5H37.375C36.4799 310.5 35.6214 310.144 34.9885 309.511C34.3556 308.879 34 308.02 34 307.125V294.375ZM36.25 294.375C36.25 294.077 36.3685 293.79 36.5795 293.58C36.7905 293.369 37.0766 293.25 37.375 293.25H54.625C54.9234 293.25 55.2095 293.369 55.4205 293.58C55.6315 293.79 55.75 294.077 55.75 294.375V305.625C55.75 305.923 55.6315 306.21 55.4205 306.42C55.2095 306.631 54.9234 306.75 54.625 306.75H37.375C37.0766 306.75 36.7905 306.631 36.5795 306.42C36.3685 306.21 36.25 305.923 36.25 305.625V294.375Z" fill="#5759F3"/>
<circle cx="179" cy="440" r="24.5" fill="white" stroke="#5D5FEF"/>
<path d="M183.477 443.199C182.244 442.102 180.651 441.497 179.001 441.497C177.35 441.497 175.758 442.102 174.524 443.199M187.054 439.621C184.87 437.579 181.991 436.442 179 436.442C176.009 436.442 173.13 437.579 170.946 439.621" stroke="#5759F3" stroke-width="3.70656" stroke-linecap="round" stroke-linejoin="round"/>
<path d="M190.234 435.67C187.142 432.912 183.143 431.388 179 431.388C174.857 431.388 170.858 432.912 167.767 435.67" stroke="#5759F3" stroke-width="3.70656" stroke-linecap="round" stroke-linejoin="round"/>
<path d="M179 449.375C178.629 449.375 178.267 449.265 177.958 449.059C177.65 448.853 177.41 448.56 177.268 448.218C177.126 447.875 177.089 447.498 177.161 447.134C177.233 446.77 177.412 446.436 177.674 446.174C177.936 445.912 178.27 445.733 178.634 445.661C178.998 445.589 179.375 445.626 179.718 445.768C180.06 445.91 180.353 446.15 180.559 446.458C180.765 446.767 180.875 447.129 180.875 447.5C180.875 447.997 180.677 448.474 180.326 448.826C179.974 449.177 179.497 449.375 179 449.375Z" fill="#5759F3"/>
<g filter="url(#filter0_d_751_1545)">
<rect x="121.389" y="199.588" width="340" height="200" rx="20" fill="#485359"/>
</g>
<rect x="131" y="210" width="320" height="180" rx="20" fill="white"/>
<rect x="131" y="210" width="320" height="180" rx="20" fill="url(#paint0_linear_751_1545)" fill-opacity="0.3"/>
<path d="M264.389 399.588H317.389L311.599 430.588H272.405L264.389 399.588Z" fill="#485359"/>
<ellipse cx="291.389" cy="440.088" rx="75" ry="12.5" fill="#485359"/>
<path d="M255.249 364.588H249.313V355.25H251.301V362.838H255.249V364.588ZM262.292 364.756C259.478 364.756 257.42 362.74 257.42 359.926C257.42 357.112 259.478 355.096 262.292 355.096C265.12 355.096 267.178 357.112 267.178 359.926C267.178 362.74 265.12 364.756 262.292 364.756ZM262.292 362.992C264.014 362.992 265.134 361.662 265.134 359.926C265.134 358.176 264.014 356.86 262.292 356.86C260.57 356.86 259.464 358.176 259.464 359.926C259.464 361.662 260.57 362.992 262.292 362.992ZM278.413 364.588H276.145L275.571 363.006H271.567L270.979 364.588H268.711L272.323 355.25H274.815L278.413 364.588ZM275.025 361.256L273.569 357.238L272.113 361.256H275.025ZM284.928 364.77C282.198 364.77 279.958 362.866 279.958 359.926C279.958 356.972 282.198 355.096 284.928 355.096C286.874 355.096 288.092 356.076 288.792 357.182L287.14 358.078C286.72 357.42 285.922 356.86 284.928 356.86C283.234 356.86 282.002 358.162 282.002 359.926C282.002 361.69 283.234 362.992 284.928 362.992C285.754 362.992 286.538 362.628 286.916 362.278V361.158H284.452V359.422H288.904V363.006C287.952 364.07 286.622 364.77 284.928 364.77ZM294.081 364.588H292.093V355.25H294.081V364.588ZM305.902 364.588H303.984L299.532 358.498V364.588H297.544V355.25H299.588L303.914 361.116V355.25H305.902V364.588ZM313.876 364.77C311.146 364.77 308.906 362.866 308.906 359.926C308.906 356.972 311.146 355.096 313.876 355.096C315.822 355.096 317.04 356.076 317.74 357.182L316.088 358.078C315.668 357.42 314.87 356.86 313.876 356.86C312.182 356.86 310.95 358.162 310.95 359.926C310.95 361.69 312.182 362.992 313.876 362.992C314.702 362.992 315.486 362.628 315.864 362.278V361.158H313.4V359.422H317.852V363.006C316.9 364.07 315.57 364.77 313.876 364.77ZM321.908 364.742C321.292 364.742 320.774 364.224 320.774 363.608C320.774 362.992 321.292 362.474 321.908 362.474C322.524 362.474 323.042 362.992 323.042 363.608C323.042 364.224 322.524 364.742 321.908 364.742ZM327.1 364.742C326.484 364.742 325.966 364.224 325.966 363.608C325.966 362.992 326.484 362.474 327.1 362.474C327.716 362.474 328.234 362.992 328.234 363.608C328.234 364.224 327.716 364.742 327.1 364.742ZM332.292 364.742C331.676 364.742 331.158 364.224 331.158 363.608C331.158 362.992 331.676 362.474 332.292 362.474C332.908 362.474 333.426 362.992 333.426 363.608C333.426 364.224 332.908 364.742 332.292 364.742Z" fill="#485359"/>
<rect x="336.01" y="287.515" width="3" height="20" rx="1.5" transform="rotate(90 336.01 287.515)" fill="#6E70F9"/>
<rect x="330.758" y="310.178" width="3" height="20" rx="1.5" transform="rotate(119.939 330.758 310.178)" fill="#8486FF"/>
<rect x="314.839" y="327.221" width="3" height="20" rx="1.5" transform="rotate(149.85 314.839 327.221)" fill="#9698FF"/>
<rect x="292.333" y="334.02" width="3" height="20" rx="1.5" transform="rotate(-179.779 292.333 334.02)" fill="#A0A1FF"/>
<rect x="269.672" y="328.667" width="3" height="20" rx="1.5" transform="rotate(-149.85 269.672 328.667)" fill="#A8A9FF"/>
<rect x="252.725" y="312.718" width="3" height="20" rx="1.5" transform="rotate(-119.939 252.725 312.718)" fill="#B6B7FF"/>
<rect x="246" y="290.161" width="3" height="20" rx="1.5" transform="rotate(-89.5577 246 290.161)" fill="#C3C4FE"/>
<rect x="251.379" y="267.627" width="3" height="20" rx="1.5" transform="rotate(-59.6388 251.379 267.627)" fill="#C9CAFF"/>
<rect x="267.359" y="250.693" width="3" height="20" rx="1.5" transform="rotate(-29.7279 267.359 250.693)" fill="#D7D7FF"/>
<rect x="290.039" y="244" width="3" height="20" rx="1.5" transform="rotate(0.663504 290.039 244)" fill="#DEDEFF"/>
<rect x="312.509" y="249.442" width="3" height="20" rx="1.5" transform="rotate(30.5721 312.509 249.442)" fill="#5759F3"/>
<rect x="328.431" y="265.525" width="3" height="20" rx="1.5" transform="rotate(60.4833 328.431 265.525)" fill="#6264F7"/>
<path d="M291.496 274C291.517 274 291.538 274.008 291.554 274.022L302.967 283.964C302.981 283.976 302.99 283.991 302.994 284.008C302.998 284.025 302.997 284.043 302.991 284.059C302.985 284.075 302.974 284.089 302.959 284.099C302.944 284.109 302.927 284.114 302.909 284.114H280.089C280.071 284.114 280.054 284.109 280.04 284.099C280.025 284.089 280.014 284.075 280.008 284.059C280.001 284.043 280 284.025 280.004 284.008C280.009 283.991 280.018 283.976 280.031 283.964L291.441 274.022C291.456 274.008 291.476 274.001 291.496 274ZM302.679 283.942L291.496 274.201L280.324 283.942H302.679Z" fill="#5759F3" stroke="#5D5FEF" stroke-miterlimit="10"/>
<path d="M302.912 283.941C302.925 283.941 302.937 283.944 302.948 283.949C302.964 283.956 302.977 283.967 302.986 283.982C302.996 283.996 303 284.012 303 284.029V303.912C303 303.929 302.996 303.946 302.986 303.96C302.977 303.974 302.964 303.986 302.948 303.992C302.933 303.999 302.916 304.001 302.899 303.999C302.882 303.996 302.867 303.989 302.854 303.978L291.44 294.036C291.431 294.028 291.423 294.018 291.418 294.007C291.413 293.996 291.411 293.984 291.411 293.972C291.411 293.96 291.413 293.948 291.418 293.937C291.423 293.926 291.431 293.916 291.44 293.908L302.85 283.963C302.867 283.949 302.889 283.941 302.912 283.941ZM302.825 303.721V284.219L291.634 293.967L302.825 303.721Z" fill="#5759F3" stroke="#5D5FEF" stroke-miterlimit="10"/>
<path d="M280.088 283.941C280.109 283.942 280.13 283.949 280.146 283.963L291.556 293.906C291.565 293.914 291.573 293.924 291.578 293.935C291.583 293.946 291.585 293.958 291.585 293.97C291.585 293.982 291.583 293.994 291.578 294.005C291.573 294.016 291.565 294.026 291.556 294.034L280.146 303.976C280.134 303.988 280.118 303.995 280.101 303.997C280.085 304 280.068 303.998 280.052 303.991C280.036 303.984 280.023 303.973 280.014 303.959C280.004 303.944 280 303.928 280 303.911V284.028C280 284.011 280.004 283.994 280.014 283.98C280.023 283.966 280.036 283.955 280.052 283.948C280.064 283.943 280.076 283.941 280.088 283.941ZM291.366 293.97L280.175 284.222V303.721L291.366 293.97Z" fill="#5759F3" stroke="#5D5FEF" stroke-miterlimit="10"/>
<path d="M295.265 277.243C295.28 277.243 295.295 277.247 295.308 277.255C295.322 277.262 295.333 277.273 295.341 277.286C295.348 277.299 295.352 277.313 295.352 277.328C295.352 277.343 295.348 277.358 295.341 277.371L291.576 283.961L302.983 303.87L302.829 303.955L291.477 284.139L280.162 303.955L280.009 303.875L291.377 283.965L287.62 277.407C287.612 277.394 287.608 277.379 287.608 277.364C287.608 277.349 287.612 277.334 287.62 277.321C287.627 277.309 287.638 277.298 287.651 277.29C287.665 277.283 287.679 277.279 287.695 277.278L295.262 277.248L295.265 277.243ZM291.478 283.785L295.115 277.416L287.847 277.445L291.478 283.785Z" fill="#5759F3" stroke="#5D5FEF" stroke-miterlimit="10"/>
<defs>
<filter id="filter0_d_751_1545" x="121.389" y="199.588" width="353" height="213" filterUnits="userSpaceOnUse" color-interpolation-filters="sRGB">
<feFlood flood-opacity="0" result="BackgroundImageFix"/>
<feColorMatrix in="SourceAlpha" type="matrix" values="0 0 0 0 0 0 0 0 0 0 0 0 0 0 0 0 0 0 127 0" result="hardAlpha"/>
<feOffset dx="7" dy="7"/>
<feGaussianBlur stdDeviation="3"/>
<feComposite in2="hardAlpha" operator="out"/>
<feColorMatrix type="matrix" values="0 0 0 0 0.341176 0 0 0 0 0.34902 0 0 0 0 0.952941 0 0 0 0.08 0"/>
<feBlend mode="normal" in2="BackgroundImageFix" result="effect1_dropShadow_751_1545"/>
<feBlend mode="normal" in="SourceGraphic" in2="effect1_dropShadow_751_1545" result="shape"/>
</filter>
<linearGradient id="paint0_linear_751_1545" x1="210" y1="249" x2="345.131" y2="366.04" gradientUnits="userSpaceOnUse">
<stop stop-color="#5D5FEF"/>
<stop offset="1" stop-color="white" stop-opacity="0"/>
</linearGradient>
<clipPath id="clip0_751_1545">
<rect width="30" height="30" fill="white" transform="translate(343 45)"/>
</clipPath>
</defs>
</svg>
