<svg width="71" height="78" viewBox="0 0 71 78" fill="none" xmlns="http://www.w3.org/2000/svg">
<path d="M0 38.9992C0 50.3293 15.894 59.5151 35.5 59.5151C55.106 59.5151 71 50.3293 71 38.9992C71 27.6691 55.1054 18.4834 35.5 18.4834C15.894 18.4834 0 27.6691 0 38.9992Z" fill="#676F73"/>
<path d="M35.5 57.9916C54.34 57.9916 69.6133 49.4878 69.6133 38.9992C69.6133 28.5094 54.34 20.0068 35.5 20.0068C16.66 20.0068 1.38672 28.5094 1.38672 38.9992C1.38672 49.4878 16.66 57.9916 35.5 57.9916Z" fill="#676F73"/>
<path d="M19.2875 41.3545C20.8367 41.3545 21.9927 41.0407 22.7243 40.4222C23.4488 39.8092 23.9485 38.7483 24.2109 37.2687C24.455 35.8854 24.3618 34.9202 23.9336 34.3985C23.4965 33.8659 22.5507 33.596 21.123 33.596H18.6468L17.2751 41.3545H19.2875ZM11.1896 50.9114C11.1328 50.9113 11.0767 50.8974 11.0254 50.8707C10.974 50.844 10.9287 50.8051 10.8926 50.7569C10.8566 50.7086 10.8307 50.6522 10.8168 50.5917C10.803 50.5312 10.8015 50.4681 10.8124 50.4068L14.4495 29.8477C14.4667 29.7516 14.5137 29.665 14.5825 29.6027C14.6512 29.5404 14.7375 29.5061 14.8267 29.5059H22.6666C25.1306 29.5059 26.9644 30.2408 28.1176 31.6905C29.2757 33.1469 29.6341 35.1846 29.1809 37.7446C28.9962 38.7873 28.6789 39.7555 28.2379 40.6233C27.7789 41.5158 27.1932 42.3222 26.5029 43.012C25.6536 43.8847 24.6924 44.5184 23.6479 44.8908C22.6206 45.2588 21.3005 45.4453 19.7262 45.4453H16.5512L15.6449 50.5689C15.6277 50.6653 15.5806 50.7522 15.5116 50.8147C15.4426 50.8772 15.356 50.9114 15.2666 50.9114H11.1896Z" fill="black"/>
<path d="M18.9649 34.0186H21.1232C22.8466 34.0186 23.4452 34.4342 23.6487 34.6822C23.9854 35.0929 24.0498 35.96 23.8323 37.1879C23.5888 38.5633 23.1373 39.5389 22.49 40.0861C21.8277 40.6467 20.7494 40.9307 19.2878 40.9307H17.7424L18.9655 34.0192L18.9649 34.0186ZM22.6669 29.0826H14.8275C14.6488 29.0827 14.4755 29.1509 14.3375 29.2758C14.1995 29.4006 14.1053 29.5742 14.0709 29.767L10.4338 50.3267C10.4124 50.4491 10.4158 50.5753 10.4438 50.6962C10.4719 50.817 10.5238 50.9296 10.5961 51.0258C10.6683 51.122 10.759 51.1995 10.8616 51.2528C10.9643 51.3061 11.0764 51.3338 11.1899 51.334H15.2668C15.4456 51.3338 15.6187 51.2654 15.7567 51.1404C15.8946 51.0155 15.9887 50.8418 16.0229 50.649L16.8688 45.8679H19.726C21.3412 45.8679 22.7013 45.6741 23.768 45.2926C24.8646 44.9014 25.8736 44.2378 26.7666 43.3201C27.4857 42.6005 28.0959 41.7599 28.5743 40.8296C29.0353 39.9234 29.367 38.9119 29.5589 37.8247C30.036 35.1295 29.6482 32.9717 28.4074 31.4117C27.1782 29.8657 25.2468 29.082 22.6669 29.082V29.0826ZM16.8078 41.7765H19.2878C20.9313 41.7765 22.1555 41.4371 22.9598 40.7558C23.7647 40.0758 24.3066 38.9399 24.5895 37.3488C24.8585 35.8205 24.7359 34.7425 24.2206 34.1143C23.7042 33.4866 22.6725 33.1722 21.1232 33.1722H18.3298L16.8078 41.7765ZM22.6675 29.9272C25.026 29.9272 26.7461 30.6079 27.8277 31.9674C28.9094 33.3275 29.2344 35.2257 28.804 37.6626C28.6254 38.6669 28.3253 39.5846 27.9026 40.4158C27.4788 41.2482 26.9264 42.0087 26.2436 42.6991C25.4293 43.5358 24.5257 44.1324 23.53 44.4876C22.5349 44.8435 21.2669 45.0208 19.7265 45.0208H16.2342L15.2674 50.4869H11.1904L14.8281 29.9272H22.6675Z" fill="white"/>
<path d="M38.5281 45.4446C38.4713 45.4447 38.4151 45.4309 38.3637 45.4043C38.3123 45.3777 38.2668 45.3389 38.2307 45.2907C38.1945 45.2426 38.1685 45.1862 38.1545 45.1256C38.1405 45.0651 38.139 45.0019 38.1498 44.9406L39.7584 35.8439C39.9121 34.9786 39.8744 34.3582 39.653 34.095C39.5171 33.9347 39.11 33.666 37.9058 33.666H34.9903L32.968 45.1027C32.9506 45.199 32.9033 45.2857 32.8342 45.348C32.7651 45.4102 32.6785 45.4441 32.5891 45.444H28.5454C28.4886 45.444 28.4325 45.4303 28.3811 45.4037C28.3297 45.3771 28.2843 45.3384 28.2481 45.2903C28.2119 45.2422 28.1858 45.186 28.1717 45.1255C28.1576 45.065 28.1559 45.0019 28.1666 44.9406L31.8042 24.3809C31.8214 24.2846 31.8686 24.1979 31.9376 24.1355C32.0066 24.0731 32.0932 24.0391 32.1825 24.0391H36.2262C36.283 24.039 36.3391 24.0528 36.3905 24.0793C36.4419 24.1059 36.4873 24.1446 36.5235 24.1927C36.5597 24.2408 36.5858 24.2971 36.5999 24.3575C36.614 24.418 36.6157 24.4811 36.605 24.5424L35.7275 29.5052H38.8632C41.2522 29.5052 42.8719 29.9671 43.8154 30.9195C44.7767 31.8903 45.0773 33.4423 44.7074 35.5343L43.015 45.1027C42.9977 45.1989 42.9505 45.2855 42.8815 45.3478C42.8125 45.41 42.726 45.444 42.6367 45.444H38.5281V45.4446Z" fill="black"/>
<path d="M36.2268 23.6162H32.1826C32.0038 23.6163 31.8305 23.6846 31.6925 23.8096C31.5544 23.9345 31.4602 24.1083 31.426 24.3011L27.7889 44.8602C27.7674 44.9827 27.7707 45.109 27.7987 45.2299C27.8267 45.3508 27.8787 45.4635 27.9509 45.5598C28.0231 45.6561 28.1138 45.7337 28.2165 45.787C28.3192 45.8403 28.4314 45.868 28.545 45.8681H32.5892C32.7681 45.8681 32.9413 45.7998 33.0794 45.6748C33.2174 45.5498 33.3116 45.3761 33.3458 45.1832L35.3077 34.0895H37.9048C39.1073 34.0895 39.3603 34.3717 39.3697 34.3845C39.4429 34.4698 39.5389 34.8689 39.3802 35.7641L37.7716 44.8602C37.7501 44.9828 37.7534 45.1091 37.7814 45.2301C37.8095 45.351 37.8615 45.4637 37.9338 45.56C38.0061 45.6563 38.0969 45.7339 38.1996 45.7872C38.3024 45.8404 38.4146 45.8681 38.5282 45.8681H42.6374C42.8161 45.868 42.9893 45.7995 43.1272 45.6746C43.2651 45.5497 43.3592 45.376 43.3934 45.1832L45.0858 35.616C45.4824 33.3699 45.1429 31.6856 44.0762 30.6088C43.0578 29.5814 41.3527 29.0823 38.8633 29.0823H36.1952L36.9834 24.6247C37.0051 24.5021 37.0018 24.3758 36.9738 24.2547C36.9459 24.1337 36.8939 24.0209 36.8215 23.9245C36.7492 23.8281 36.6584 23.7505 36.5556 23.6972C36.4528 23.6439 36.3405 23.6163 36.2268 23.6162ZM36.2268 24.4632L35.26 29.9281H38.8633C41.1303 29.9281 42.6945 30.3632 43.5543 31.2322C44.4157 32.1011 44.6731 33.5082 44.3297 35.4551L42.6368 45.0217H38.5282L40.1374 35.925C40.3204 34.8903 40.2528 34.1846 39.9349 33.808C39.6171 33.432 38.9404 33.2437 37.9059 33.2437H34.6726L32.5892 45.0211H28.5444L32.1821 24.4614H36.2268V24.4632Z" fill="white"/>
<path d="M51.1063 41.3545C52.6555 41.3545 53.812 41.0407 54.5442 40.4222C55.2675 39.8092 55.7679 38.7483 56.0302 37.2687C56.2743 35.8854 56.1817 34.9202 55.7529 34.3985C55.3158 33.8659 54.37 33.596 52.9423 33.596H50.4667L49.0939 41.3545H51.1063ZM43.0101 50.9114C42.9531 50.9115 42.8969 50.8977 42.8455 50.8711C42.794 50.8444 42.7485 50.8056 42.7123 50.7573C42.6761 50.7091 42.6502 50.6526 42.6362 50.592C42.6223 50.5314 42.6208 50.4682 42.6318 50.4068L46.2688 29.8477C46.2861 29.7514 46.3332 29.6647 46.4022 29.6023C46.4712 29.5399 46.5578 29.5059 46.6471 29.5059H54.4865C56.9505 29.5059 58.7843 30.2408 59.9369 31.6905C61.0956 33.1469 61.4534 35.1846 61.0002 37.7446C60.827 38.753 60.5089 39.7247 60.0578 40.6233C59.5986 41.5157 59.0129 42.3221 58.3228 43.012C57.4741 43.8847 56.5117 44.5184 55.4678 44.8908C54.4405 45.2588 53.1203 45.4453 51.5456 45.4453H48.3711L47.4653 50.5689C47.4482 50.6654 47.401 50.7524 47.3319 50.8149C47.2627 50.8774 47.176 50.9115 47.0864 50.9114H43.0101Z" fill="black"/>
<path d="M50.7843 34.0186H52.9426C54.666 34.0186 55.2645 34.4342 55.4675 34.6822C55.8059 35.0929 55.8691 35.96 55.6522 37.1879C55.4082 38.5633 54.9566 39.5389 54.3093 40.0861C53.6465 40.6467 52.5682 40.9307 51.1071 40.9307H49.5617L50.7843 34.0186ZM54.4863 29.0826H46.6469C46.4682 29.0828 46.2951 29.1511 46.1572 29.2759C46.0193 29.4008 45.9251 29.5743 45.8908 29.767L42.2532 50.3267C42.2317 50.4492 42.2351 50.5754 42.2632 50.6963C42.2913 50.8172 42.3433 50.9298 42.4156 51.026C42.4879 51.1223 42.5786 51.1998 42.6813 51.253C42.784 51.3062 42.8962 51.3339 43.0098 51.334H47.0867C47.2655 51.3338 47.4386 51.2654 47.5765 51.1404C47.7145 51.0155 47.8086 50.8418 47.8428 50.649L48.6887 45.8679H51.5453C53.16 45.8679 54.5207 45.6741 55.5868 45.2926C56.6839 44.9014 57.6929 44.2378 58.5865 43.3195C59.3053 42.6001 59.9154 41.7596 60.3937 40.8296C60.8552 39.9234 61.1858 38.9119 61.3783 37.8247C61.8553 35.1295 61.4681 32.9717 60.2267 31.4117C58.9975 29.8657 57.0667 29.082 54.4857 29.082L54.4863 29.0826ZM48.6271 41.7765H51.1066C52.7506 41.7765 53.9743 41.4371 54.7797 40.7558C55.584 40.0758 56.1265 38.9399 56.4083 37.3488C56.6784 35.8205 56.5558 34.7425 56.0394 34.1143C55.5235 33.4866 54.4913 33.1722 52.9426 33.1722H50.1497L48.6271 41.7765ZM54.4863 29.9272C56.8442 29.9272 58.5654 30.6079 59.6465 31.9674C60.7282 33.3275 61.0538 35.2257 60.6222 37.6626C60.4447 38.6669 60.1441 39.5846 59.7214 40.4158C59.2982 41.2482 58.7452 42.0087 58.0618 42.6991C57.2481 43.5358 56.3439 44.1324 55.3482 44.4876C54.3537 44.8435 53.0862 45.0208 51.5453 45.0208H48.0536L47.0856 50.4869H43.0087L46.6463 29.9272H54.4863Z" fill="white"/>
</svg>
