<svg width="72" height="72" viewBox="0 0 72 72" fill="none" xmlns="http://www.w3.org/2000/svg">
<g clip-path="url(#clip0_541_1582)">
<path d="M39.7426 12.6599L37.3424 5.4L12.285 0L0 13.8974L13.5 20.8049V12.6599H39.7426Z" fill="url(#paint0_linear_541_1582)"/>
<path d="M13.5 17.385L0 13.8975L6.8625 55.1175L13.4775 55.0652L13.5 17.385Z" fill="url(#paint1_linear_541_1582)"/>
<path d="M58.5 12.6603H35.0176L44.4524 4.27539L62.6324 7.65039L72 30.9303L58.5076 44.333L58.5 12.6603Z" fill="url(#paint2_linear_541_1582)"/>
<path d="M58.5151 30.6221L58.5002 57.6595H19.8452L20.8428 63.5396L45.1127 71.9996L72.0002 55.9045L58.5151 30.6221Z" fill="url(#paint3_linear_541_1582)"/>
<path d="M13.2188 12.3105H58.7812V57.873H13.2188V12.3105Z" fill="black"/>
<path d="M19.1099 49.245H35.9849V52.0575H19.1099V49.245ZM33.8249 32.8951L36.0223 30.1951C37.4026 31.4699 39.1989 32.2002 41.0772 32.2502C42.5774 32.2502 43.5224 31.6427 43.5224 30.6527V30.6077C43.5224 30.2241 43.4259 29.9158 43.1224 29.6371L43.0544 29.5777C43.004 29.5365 42.9517 29.4976 42.8977 29.4613L42.8091 29.4039C42.761 29.3743 42.712 29.346 42.6623 29.319L42.5549 29.2627C42.5361 29.2532 42.5172 29.2439 42.4983 29.2346L42.3788 29.1789C42.3365 29.1599 42.2939 29.1413 42.2511 29.1232L42.115 29.0673C42.0912 29.0578 42.0674 29.0484 42.0436 29.0392L41.8942 28.9835C41.8682 28.974 41.8421 28.9646 41.816 28.9553L41.6529 28.8988L41.5677 28.8704L41.3905 28.8133L41.2029 28.7557L41.0055 28.6972C40.9717 28.6873 40.9374 28.6775 40.9028 28.6679L40.6896 28.6083L40.466 28.5478L39.7798 28.3698L39.5643 28.3121L39.2476 28.2249L39.1441 28.1954L38.9394 28.1358L38.7386 28.0753C38.7057 28.0651 38.6727 28.0548 38.6399 28.0444L38.4447 27.9819L38.2534 27.9184C38.2221 27.9076 38.1908 27.8967 38.1595 27.8857L37.9744 27.8197L37.7936 27.7522C37.7639 27.7407 37.7342 27.7291 37.7047 27.7173L37.5298 27.6467L37.3593 27.5738C35.5914 26.7984 34.5331 25.654 34.5004 23.3888L34.4999 23.2277C34.4999 20.1924 36.9158 18.1705 40.3161 18.1283L40.4247 18.1275C42.7071 18.0872 44.9313 18.849 46.7098 20.2802L44.7748 23.0851C43.5104 22.096 41.9748 21.5152 40.3724 21.4201C38.9473 21.4201 38.1972 22.0726 38.1972 22.92V22.9726C38.1972 23.5998 38.4368 23.9975 39.1695 24.3597L39.2859 24.4151C39.3261 24.4337 39.3675 24.452 39.4105 24.4702L39.5432 24.5251L39.6844 24.5799L39.8343 24.6348L39.9927 24.6899L40.1603 24.7456L40.3372 24.8016L40.5234 24.8584L40.8207 24.945L41.1405 25.0344L41.4833 25.1267L41.8498 25.2226C41.9305 25.2437 42.0106 25.2651 42.0897 25.2867L42.3248 25.352C42.4021 25.3739 42.4789 25.3961 42.5546 25.4186L42.7796 25.4867C42.8164 25.4979 42.8533 25.5097 42.8898 25.5213L43.107 25.5916L43.319 25.6636C43.4236 25.7002 43.5263 25.7373 43.6273 25.7752L43.8261 25.852C45.9847 26.7076 47.1837 27.9395 47.2188 30.1968L47.2197 30.3526C47.2197 33.7127 44.6547 35.6027 41.0024 35.6027C38.3585 35.6123 35.8036 34.6485 33.8249 32.8951ZM19.1248 18.375H26.0247C30.0044 18.375 32.4332 20.7127 32.4816 24.0996L32.4822 24.2475C32.4822 28.1476 29.4447 30.1726 25.6647 30.1726H22.8747V35.2275H19.1248V18.375ZM25.7699 26.8727C27.6222 26.8727 28.7098 25.7702 28.7098 24.3226V24.2776C28.7098 22.6126 27.5547 21.7202 25.7097 21.7202H22.8747V26.8727H25.7699Z" fill="white"/>
</g>
<defs>
<linearGradient id="paint0_linear_541_1582" x1="1597.49" y1="1332.72" x2="1853.86" y2="820.331" gradientUnits="userSpaceOnUse">
<stop stop-color="#AF1DF5"/>
<stop offset="0.21" stop-color="#BC20E4"/>
<stop offset="0.63" stop-color="#DD29B8"/>
<stop offset="1" stop-color="#FF318C"/>
</linearGradient>
<linearGradient id="paint1_linear_541_1582" x1="578.947" y1="3253.91" x2="2319.39" y2="954.724" gradientUnits="userSpaceOnUse">
<stop offset="0.02" stop-color="#6B57FF"/>
<stop offset="0.42" stop-color="#B74AF7"/>
<stop offset="0.75" stop-color="#FF318C"/>
</linearGradient>
<linearGradient id="paint2_linear_541_1582" x1="2744.27" y1="4098.52" x2="996.103" y2="-48.9719" gradientUnits="userSpaceOnUse">
<stop stop-color="#293896"/>
<stop offset="0.08" stop-color="#3B3AA2"/>
<stop offset="0.29" stop-color="#6740C0"/>
<stop offset="0.49" stop-color="#8A44D8"/>
<stop offset="0.68" stop-color="#A347E9"/>
<stop offset="0.86" stop-color="#B249F3"/>
<stop offset="1" stop-color="#B74AF7"/>
</linearGradient>
<linearGradient id="paint3_linear_541_1582" x1="3298.83" y1="3028.26" x2="2397.74" y2="1708.02" gradientUnits="userSpaceOnUse">
<stop offset="0.02" stop-color="#6B57FF"/>
<stop offset="0.78" stop-color="#B74AF7"/>
</linearGradient>
<clipPath id="clip0_541_1582">
<rect width="72" height="72" fill="white"/>
</clipPath>
</defs>
</svg>
