<svg width="20" height="20" viewBox="0 0 20 20" fill="none" xmlns="http://www.w3.org/2000/svg">
<path d="M9.56985 2.25461C12.1198 2.25461 12.4222 2.26405 13.4298 2.3097C16.0179 2.42618 17.2268 3.64058 17.3446 6.18114C17.3908 7.17674 17.3995 7.47581 17.3995 9.99748C17.3995 12.5199 17.39 12.8182 17.3446 13.8138C17.226 16.352 16.0203 17.5688 13.4298 17.6853C12.4222 17.7309 12.1214 17.7404 9.56985 17.7404C7.01992 17.7404 6.71749 17.7309 5.71073 17.6853C3.11622 17.568 1.91368 16.3481 1.79589 13.813C1.74973 12.8174 1.74018 12.5191 1.74018 9.99669C1.74018 7.47502 1.75053 7.17674 1.79589 6.18035C1.91447 3.64058 3.1202 2.42539 5.71073 2.30891C6.71829 2.26405 7.01992 2.25461 9.56985 2.25461ZM9.56985 0.552246C6.97614 0.552246 6.65143 0.563265 5.63273 0.608913C2.16437 0.76632 0.236801 2.66938 0.077629 6.10243C0.0306733 7.11063 0.0195312 7.43174 0.0195312 9.99669C0.0195312 12.5616 0.0306733 12.8835 0.0768332 13.891C0.236005 17.3209 2.16039 19.2271 5.63194 19.3845C6.65143 19.4301 6.97614 19.4411 9.56985 19.4411C12.1636 19.4411 12.4891 19.4301 13.5078 19.3845C16.9729 19.2271 18.9053 17.324 19.0621 13.891C19.109 12.8835 19.1202 12.5616 19.1202 9.99669C19.1202 7.43174 19.109 7.11063 19.0629 6.10322C18.9069 2.67646 16.9801 0.767107 13.5086 0.6097C12.4891 0.563265 12.1636 0.552246 9.56985 0.552246V0.552246ZM9.56985 5.14697C6.86154 5.14697 4.66576 7.3184 4.66576 9.99669C4.66576 12.675 6.86154 14.8472 9.56985 14.8472C12.2782 14.8472 14.4739 12.6758 14.4739 9.99669C14.4739 7.3184 12.2782 5.14697 9.56985 5.14697ZM9.56985 13.1448C7.8118 13.1448 6.38641 11.736 6.38641 9.99669C6.38641 8.25813 7.8118 6.84854 9.56985 6.84854C11.3279 6.84854 12.7533 8.25813 12.7533 9.99669C12.7533 11.736 11.3279 13.1448 9.56985 13.1448ZM14.6681 3.82239C14.0346 3.82239 13.5213 4.33002 13.5213 4.95572C13.5213 5.58141 14.0346 6.08905 14.6681 6.08905C15.3008 6.08905 15.8134 5.58141 15.8134 4.95572C15.8134 4.33002 15.3008 3.82239 14.6681 3.82239Z" fill="#676F73"/>
</svg>
