<svg width="35" height="34" viewBox="0 0 35 34" fill="none" xmlns="http://www.w3.org/2000/svg">
<path d="M18.0233 21.951C18.4595 21.951 18.6379 21.6634 18.6329 21.3029C18.6106 19.945 19.1443 19.214 20.1077 20.1667C21.1735 21.2207 21.3941 21.951 22.6884 21.951H24.9805C25.5592 21.951 25.787 21.7668 25.787 21.4778C25.787 20.8665 24.7692 19.7877 23.9068 18.9958C22.6991 17.8873 22.6426 17.8611 23.6826 16.5266C24.9726 14.8698 26.6601 12.7469 25.1674 12.7469H22.3159C21.763 12.7469 21.7229 13.055 21.5259 13.514C20.8132 15.1765 19.4587 17.3298 18.9444 17.0004C18.4065 16.6569 18.6529 15.2962 18.6937 13.2739C18.7045 12.7398 18.7016 12.3736 17.8765 12.1838C17.4259 12.0811 16.9876 12.0386 16.5807 12.0386C14.9526 12.0386 13.8295 12.7136 14.4677 12.8312C15.593 13.0387 15.4848 15.4464 15.2227 16.4862C14.7657 18.2967 13.0481 15.0525 12.3325 13.4368C12.1599 13.0487 12.1069 12.7469 11.4909 12.7469H9.15941C8.807 12.7469 8.5957 12.8602 8.5957 13.1124C8.5957 13.5388 10.7159 17.8724 12.7401 20.0328C14.7141 22.1401 16.6652 21.951 18.0233 21.951Z" fill="#676F73"/>
</svg>
