<svg width="65" height="67" viewBox="0 0 65 67" fill="none" xmlns="http://www.w3.org/2000/svg">
<g clip-path="url(#clip0_660_1471)">
<mask id="mask0_660_1471" style="mask-type:luminance" maskUnits="userSpaceOnUse" x="0" y="0" width="65" height="67">
<path d="M45.9133 66.6318C46.4285 66.8405 46.9795 66.9369 47.5321 66.9148C48.0847 66.8927 48.627 66.7528 49.1252 66.5036L62.4556 59.84C63.1421 59.4966 63.7214 58.9588 64.1268 58.2886C64.5322 57.6183 64.7472 56.8427 64.7471 56.0511V10.8667C64.7472 10.0751 64.5321 9.29963 64.1268 8.62939C63.7214 7.95915 63.1421 7.42142 62.4556 7.07805L49.1255 0.414187C48.3723 0.0376425 47.525 -0.0863375 46.7009 0.0594075C45.8769 0.205152 45.1168 0.613414 44.526 1.22768L19.0066 25.4149L7.89061 16.649C7.3892 16.2536 6.77035 16.053 6.14146 16.0821C5.51256 16.1111 4.9133 16.368 4.44764 16.8081L0.882547 20.1773C-0.293039 21.2881 -0.294308 23.2095 0.8795 24.3221L10.5196 33.4589L0.8795 42.5954C-0.294308 43.7083 -0.293039 45.6294 0.882547 46.7405L4.44764 50.1095C4.91327 50.5496 5.51251 50.8065 6.14141 50.8356C6.77031 50.8647 7.38917 50.6642 7.89061 50.2688L19.0066 41.5026L44.526 65.6899C44.9205 66.1004 45.393 66.4212 45.9133 66.6318ZM48.5702 18.189L29.2068 33.4589L48.5702 48.7286V18.189Z" fill="#0065A9"/>
</mask>
<g mask="url(#mask0_660_1471)">
<path d="M62.4952 7.08885L49.1544 0.415751C48.401 0.0389028 47.5534 -0.0853413 46.729 0.0602119C45.9046 0.205765 45.1442 0.613919 44.5529 1.22819L0.879976 42.5959C-0.294594 43.7088 -0.29307 45.6299 0.883023 46.741L4.45041 50.11C4.91644 50.5502 5.51607 50.8071 6.14533 50.8362C6.77459 50.8653 7.39382 50.6648 7.89566 50.2693L60.4878 8.82003C62.2522 7.42965 64.7864 8.73694 64.7864 11.0376V10.8767C64.7864 10.0853 64.5714 9.30997 64.166 8.63988C63.7607 7.96979 63.1815 7.43217 62.4952 7.08885Z" fill="#676F73"/>
</g>
<mask id="mask1_660_1471" style="mask-type:luminance" maskUnits="userSpaceOnUse" x="0" y="0" width="65" height="67">
<path d="M45.9133 66.6318C46.4285 66.8405 46.9795 66.9369 47.5321 66.9148C48.0847 66.8927 48.627 66.7528 49.1252 66.5036L62.4556 59.84C63.1421 59.4966 63.7214 58.9588 64.1268 58.2886C64.5322 57.6183 64.7472 56.8427 64.7471 56.0511V10.8667C64.7472 10.0751 64.5321 9.29963 64.1268 8.62939C63.7214 7.95915 63.1421 7.42142 62.4556 7.07805L49.1255 0.414187C48.3723 0.0376425 47.525 -0.0863375 46.7009 0.0594075C45.8769 0.205152 45.1168 0.613414 44.526 1.22768L19.0066 25.4149L7.89061 16.649C7.3892 16.2536 6.77035 16.053 6.14146 16.0821C5.51256 16.1111 4.9133 16.368 4.44764 16.8081L0.882547 20.1773C-0.293039 21.2881 -0.294308 23.2095 0.8795 24.3221L10.5196 33.4589L0.8795 42.5954C-0.294308 43.7083 -0.293039 45.6294 0.882547 46.7405L4.44764 50.1095C4.91327 50.5496 5.51251 50.8065 6.14141 50.8356C6.77031 50.8647 7.38917 50.6642 7.89061 50.2688L19.0066 41.5026L44.526 65.6899C44.9205 66.1004 45.393 66.4212 45.9133 66.6318ZM48.5702 18.189L29.2068 33.4589L48.5702 48.7286V18.189Z" fill="#007ACC"/>
</mask>
<g mask="url(#mask1_660_1471)">
<path d="M62.4952 59.8291L49.1544 66.5022C48.401 66.879 47.5534 67.0032 46.729 66.8576C45.9047 66.7121 45.1442 66.304 44.5529 65.6898L0.879976 24.322C-0.294594 23.2094 -0.29307 21.288 0.883023 20.1772L4.45041 16.808C4.91647 16.3678 5.51611 16.1109 6.14537 16.0819C6.77463 16.0528 7.39384 16.2534 7.89566 16.6489L60.4878 58.0979C62.2522 59.4883 64.7864 58.181 64.7864 55.8801V56.0412C64.7864 56.8326 64.5713 57.608 64.166 58.2781C63.7607 58.9481 63.1815 59.4858 62.4952 59.8291Z" fill="#676F73"/>
</g>
<mask id="mask2_660_1471" style="mask-type:luminance" maskUnits="userSpaceOnUse" x="0" y="0" width="65" height="67">
<path d="M45.9133 66.6318C46.4285 66.8405 46.9795 66.9369 47.5321 66.9148C48.0847 66.8927 48.627 66.7528 49.1252 66.5036L62.4556 59.84C63.1421 59.4966 63.7214 58.9588 64.1268 58.2886C64.5322 57.6183 64.7472 56.8427 64.7471 56.0511V10.8667C64.7472 10.0751 64.5321 9.29963 64.1268 8.62939C63.7214 7.95915 63.1421 7.42142 62.4556 7.07805L49.1255 0.414187C48.3723 0.0376425 47.525 -0.0863375 46.7009 0.0594075C45.8769 0.205152 45.1168 0.613414 44.526 1.22768L19.0066 25.4149L7.89061 16.649C7.3892 16.2536 6.77035 16.053 6.14146 16.0821C5.51256 16.1111 4.9133 16.368 4.44764 16.8081L0.882547 20.1773C-0.293039 21.2881 -0.294308 23.2095 0.8795 24.3221L10.5196 33.4589L0.8795 42.5954C-0.294308 43.7083 -0.293039 45.6294 0.882547 46.7405L4.44764 50.1095C4.91327 50.5496 5.51251 50.8065 6.14141 50.8356C6.77031 50.8647 7.38917 50.6642 7.89061 50.2688L19.0066 41.5026L44.526 65.6899C44.9205 66.1004 45.393 66.4212 45.9133 66.6318ZM48.5702 18.189L29.2068 33.4589L48.5702 48.7286V18.189Z" fill="#1F9CF0"/>
</mask>
<g mask="url(#mask2_660_1471)">
<path d="M49.1123 66.5073C48.3587 66.8839 47.511 67.0079 46.6866 66.8622C45.8622 66.7165 45.1016 66.3083 44.5103 65.6941C46.0035 67.2451 48.557 66.1464 48.557 63.9523V2.97309C48.557 0.778975 46.0035 -0.319667 44.5103 1.23162C45.1016 0.617298 45.8621 0.209041 46.6866 0.0633056C47.511 -0.0824293 48.3586 0.0415589 49.1123 0.418124L62.4508 7.08199C63.1376 7.42512 63.7171 7.96276 64.1228 8.63302C64.5284 9.30329 64.7436 10.0789 64.7435 10.8707V56.0553C64.7435 57.6709 63.8523 59.1439 62.4508 59.844L49.1123 66.5073Z" fill="#676F73"/>
</g>
<mask id="mask3_660_1471" style="mask-type:luminance" maskUnits="userSpaceOnUse" x="0" y="0" width="65" height="67">
<path d="M45.9133 66.6318C46.4285 66.8405 46.9795 66.9369 47.5321 66.9148C48.0847 66.8927 48.627 66.7528 49.1252 66.5036L62.4556 59.84C63.1421 59.4966 63.7214 58.9588 64.1268 58.2886C64.5322 57.6183 64.7472 56.8427 64.7471 56.0511V10.8667C64.7472 10.0751 64.5321 9.29963 64.1268 8.62939C63.7214 7.95915 63.1421 7.42142 62.4556 7.07805L49.1255 0.414187C48.3723 0.0376425 47.525 -0.0863375 46.7009 0.0594075C45.8769 0.205152 45.1168 0.613414 44.526 1.22768L19.0066 25.4149L7.89061 16.649C7.3892 16.2536 6.77035 16.053 6.14146 16.0821C5.51256 16.1111 4.9133 16.368 4.44764 16.8081L0.882547 20.1773C-0.293039 21.2881 -0.294308 23.2095 0.8795 24.3221L10.5196 33.4589L0.8795 42.5954C-0.294308 43.7083 -0.293039 45.6294 0.882547 46.7405L4.44764 50.1095C4.91327 50.5496 5.51251 50.8065 6.14141 50.8356C6.77031 50.8647 7.38917 50.6642 7.89061 50.2688L19.0066 41.5026L44.526 65.6899C44.9205 66.1004 45.393 66.4212 45.9133 66.6318ZM48.5702 18.189L29.2068 33.4589L48.5702 48.7286V18.189Z" fill="url(#paint0_linear_660_1471)" fill-opacity="0.25"/>
</mask>
<g mask="url(#mask3_660_1471)">
<path d="M45.9133 66.632C46.4285 66.8407 46.9796 66.937 47.5321 66.9149C48.0847 66.8929 48.627 66.7529 49.1252 66.5038L62.4553 59.8399C63.1419 59.4966 63.7213 58.9589 64.1267 58.2887C64.5321 57.6184 64.7472 56.8429 64.7471 56.0513V10.8669C64.7472 10.0753 64.5321 9.29981 64.1268 8.62957C63.7214 7.95933 63.1421 7.42159 62.4556 7.07823L49.125 0.414101C48.3718 0.0376173 47.5246 -0.0863298 46.7006 0.0594139C45.8766 0.205158 45.1166 0.613385 44.5257 1.2276L19.0066 25.4151L7.89061 16.6492C7.3892 16.2538 6.77035 16.0532 6.14146 16.0823C5.51256 16.1113 4.9133 16.3682 4.44764 16.8083L0.882547 20.1775C-0.293039 21.2883 -0.294308 23.2097 0.8795 24.3223L10.5196 33.4591L0.8795 42.5956C-0.294308 43.7085 -0.293039 45.6296 0.882547 46.7406L4.44764 50.1096C4.91327 50.5498 5.51251 50.8067 6.14141 50.8358C6.77031 50.8649 7.38917 50.6643 7.89061 50.269L19.0066 41.5028L44.5257 65.69C44.9204 66.1006 45.3929 66.4214 45.9133 66.632ZM48.5702 18.1889L29.2068 33.4591L48.5702 48.7288V18.1889Z" fill="url(#paint1_linear_660_1471)" fill-opacity="0.25"/>
</g>
</g>
<defs>
<linearGradient id="paint0_linear_660_1471" x1="3237.35" y1="0" x2="3237.35" y2="6691.79" gradientUnits="userSpaceOnUse">
<stop stop-color="white"/>
<stop offset="1" stop-color="white" stop-opacity="0"/>
</linearGradient>
<linearGradient id="paint1_linear_660_1471" x1="3237.35" y1="0" x2="3237.35" y2="6691.8" gradientUnits="userSpaceOnUse">
<stop stop-color="white"/>
<stop offset="1" stop-color="white" stop-opacity="0"/>
</linearGradient>
<clipPath id="clip0_660_1471">
<rect width="65" height="67" fill="white"/>
</clipPath>
</defs>
</svg>
