<svg width="72" height="72" viewBox="0 0 72 72" fill="none" xmlns="http://www.w3.org/2000/svg">
<g clip-path="url(#clip0_660_1554)">
<path d="M55.125 0H16.875C7.55519 0 0 7.55519 0 16.875V55.125C0 64.4448 7.55519 72 16.875 72H55.125C64.4448 72 72 64.4448 72 55.125V16.875C72 7.55519 64.4448 0 55.125 0Z" fill="#676F73"/>
<path d="M11.8726 35.9987C11.8726 45.5485 17.4225 53.8015 25.4702 57.7126L13.9614 26.18C12.5818 29.2694 11.87 32.6152 11.8726 35.9987ZM52.2865 34.7811C52.2865 31.7996 51.2155 29.7347 50.2969 28.1273C49.0738 26.14 47.9274 24.457 47.9274 22.4697C47.9274 20.2518 49.6096 18.1874 51.9788 18.1874C52.086 18.1874 52.1872 18.2006 52.2916 18.2065C47.9991 14.2741 42.2805 11.873 35.999 11.873C27.5705 11.873 20.1548 16.1975 15.841 22.7479C16.4069 22.7647 16.9404 22.7768 17.3935 22.7768C19.9172 22.7768 23.8234 22.4703 23.8234 22.4703C25.1239 22.3938 25.2775 24.304 23.9781 24.4579C23.9781 24.4579 22.6712 24.6117 21.2168 24.6879L30.0025 50.8211L35.2824 34.9859L31.5235 24.6871C30.2244 24.6109 28.9937 24.457 28.9937 24.457C27.6934 24.3808 27.8459 22.3929 29.1461 22.4697C29.1461 22.4697 33.1303 22.7757 35.5009 22.7757C38.0243 22.7757 41.9309 22.4697 41.9309 22.4697C43.2325 22.3929 43.3852 24.3032 42.0856 24.457C42.0856 24.457 40.7758 24.6109 39.3243 24.6871L48.0433 50.6223L50.4497 42.5808C51.4928 39.2435 52.2865 36.8466 52.2865 34.7811Z" fill="white"/>
<path d="M36.4229 38.1085L29.1841 59.1432C31.3972 59.795 33.6925 60.1261 35.9996 60.1261C38.7284 60.1271 41.4374 59.6646 44.0113 58.7584C43.9443 58.6529 43.8869 58.5417 43.8397 58.426L36.4229 38.1085ZM57.1696 24.4229C57.2793 25.2451 57.3336 26.0739 57.3321 26.9035C57.3321 29.3518 56.8748 32.1041 55.4976 35.5454L48.128 56.8527C55.3007 52.6699 60.1252 44.8993 60.1252 35.9985C60.1255 31.8037 59.0542 27.8592 57.1696 24.4229Z" fill="white"/>
<path d="M35.9994 7.875C20.4919 7.875 7.875 20.491 7.875 35.9983C7.875 51.5076 20.4919 64.123 35.9994 64.123C51.5062 64.123 64.125 51.5076 64.125 35.9983C64.1244 20.491 51.5062 7.875 35.9994 7.875ZM35.9994 62.8341C21.2029 62.8341 9.16453 50.7954 9.16453 35.9983C9.16453 21.202 21.2026 9.16453 35.9994 9.16453C50.7952 9.16453 62.8327 21.202 62.8327 35.9983C62.8327 50.7954 50.7952 62.8341 35.9994 62.8341Z" fill="white"/>
</g>
<defs>
<clipPath id="clip0_660_1554">
<rect width="72" height="72" fill="white"/>
</clipPath>
</defs>
</svg>
